<?xml version="1.0" encoding="utf-8"?>
<!-- Generator: Adobe Illustrator 17.1.0, SVG Export Plug-In . SVG Version: 6.00 Build 0)  -->
<!DOCTYPE svg PUBLIC "-//W3C//DTD SVG 1.1//EN" "http://www.w3.org/Graphics/SVG/1.1/DTD/svg11.dtd">
<svg version="1.1" id="Layer_1" xmlns="http://www.w3.org/2000/svg" xmlns:xlink="http://www.w3.org/1999/xlink" x="0px" y="0px"
	 viewBox="0 0 640.9 534.9" enable-background="new 0 0 640.9 534.9" xml:space="preserve">
<g>
	<path fill="#FFFFFF" stroke="#000000" d="M0.5,534.4c0-178,0-356,0-533.9c213.3,0,426.6,0,639.9,0c0,178,0,356,0,533.9
		C427.1,534.4,213.8,534.4,0.5,534.4z M276.9,89.7c-2.1-0.1-4.3-0.3-6.4-0.1c-1,0.1-2.8,1.4-2.7,2c0.4,2.3,0.7,5.4,2.2,6.4
		c1.5,0.9,5.2,0.4,6.5-0.9c1.8-1.8,3.7-5,0.2-7.5c1.2-0.7,3.6-1.4,3.5-1.9c-0.1-1.6-1-4.4-1.9-4.5c-2.7-0.3-5.6,0.4-8.4,0.8
		c0,0.6-0.1,1.2-0.1,1.8C272.2,87,274.5,88.4,276.9,89.7z M327.4,119.5c0.7,0,1.3,0,2,0.1c5.6,1.1,11.2,3.3,16.5-1
		c0.7-0.5,2.3-0.5,3.2,0c4.2,2.1,7.6,1.5,10.3-2.3c1.8-2.6,2.1-5.3-1.3-7.1c-1-0.5-1.9-1.2-2.9-1.9c1-1.7,2.4-3.1,2.4-4.4
		c0-3.2,0.9-5.2,3.8-7.1c3-2,1.5-8.8-1.6-10.4c-1.1-0.5-2.8-1.8-2.7-2.3c0.4-1.2,1.5-2.3,2.5-3.3c3.7-3.6,10.8-5.1,8-12.8
		c-0.2-0.5,0.3-1.3,0.5-1.9c1.2-4.4,2.3-8.9,3.8-13.3c1.1-3.2-1.7-6.4,0.8-9.8c2.4-3.3,1.5-7-3.2-7.8c-4.8-0.9-10-2.5-14.5-1.4
		c-6.4,1.6-13.5,3.5-16.4,11c-0.2,0.6-0.8,1.6-1,1.5c-4.5-1.5-5.4,3.3-8.2,4.6c-6.7,3.1-8,7.3-3.4,13c1.6,2.1,3.4,4.6,5.7,5.6
		c5.6,2.4,11.1,1.5,15.6-3.2c-1.6,4.8-5.6,5.4-9.6,6.3c-2,0.4-3.8,1.7-6.6,3.1c-1.4-1.9-3.8-4.8-5.5-8c-1.8-3.3-1.8-7.9-7.5-8.6
		c-1.6,5.1-3,10.4-4.9,15.4c-2.2,6.1-0.1,10.7,6.4,11.6c-6.4,2.8-3.3,6.5-1.3,9.8c0.9,1.5,2.7,3.6,3.8,3.5c3-0.4,5.9-1.9,7.9-2.7
		c2,1.4,3.9,2.6,5.6,3.9c1,0.8,1.8,1.9,2.5,2.8c-3.1-0.2-5.3-0.3-7.5-0.4c0.2,2.7,0.4,5.4,0.5,7.3c-1.9,2.9-3.7,5.6-5.6,8.4
		c-2.6-1.4-5.3-2.9-7.9-4.3c-2.2-1.2-4.3-2.6-6.6-3.3c-1.1-0.3-3,0.4-3.9,1.3c-0.5,0.5-0.1,2.6,0.6,3.5c1.9,2.3,3.8,5.3,6.3,6.1
		c4.6,1.5,4.4,3.8,4.1,7.8c-0.3,3.7,0.4,9.4,2.7,10.9c3.9,2.5,9.4,2.9,14.3,3.1c5.4,0.2,11-0.4,16.3-1.4c2.2-0.5,5.3-2.8,5.8-4.8
		c0.7-3.3,1.7-7.7-2.7-10c-5.2-2.6-10.1-2.1-14.9,1.2c-3.6,2.4-10.2,1-12-2.7C326.9,123.4,327.4,121.3,327.4,119.5z M529.2,427.7
		c-2.6-2.2-5.4-4.2-5.1-8.4c0.3-3.9-2.5-5.2-6.4-3.3c-1.4,0.7-3.2,0.6-4.8,0.9c-0.1-0.5-0.3-0.9-0.4-1.4c5.9,0.2,7.8-4.6,10.3-8.2
		c1.9-2.8,0.6-5.4-2.6-6.7c-4.5-1.7-8.8-1.3-12.9,1.3c-10.6,6.7-17.8,16.2-22.8,27.5c-0.8,1.8-1.6,3.6-2.3,5.5
		c-0.4-0.2-0.8-0.3-1.3-0.5c2.2-6.2,4-12.5,6.6-18.5c1.6-3.7,4.7-6.7,7-10c1-1.5,1.9-3.1,2.8-4.6c1.8-3,2.9-6.7,5.4-8.8
		c2.9-2.4,7-3.5,10.7-5c9.7-4,19.5-7.9,29.1-12.1c1.2-0.5,2.1-2.2,2.7-3.6c2.6-6.1,2.9-13.3,8.3-18.2c2.4-2.2,4.6-4.7,6.8-7
		c-0.7,2.4-1.9,4.7-1.8,7c0.3,7.5,1.2,15,1.7,22.5c0.3,3.4,0.3,6.8,0.4,10.2c0.1,2,1,4.2,0.3,5.8c-1.3,3.5-0.7,5.7,2.3,6.8
		c5.3-2.4,10.3-4.7,15.2-6.9c1.3-0.6,3.1-1,3.8-2.1c2.2-3.1,4.7-3.6,7-2.3c0.5,2.3,0.9,4,1.3,5.7c1.9-0.5,4.4-0.5,5.6-1.7
		c1.3-1.4,1.5-3.9,1.8-6c0.3-1.8,0.3-3.7,0.4-5.6c0.3,0,0.6-0.1,0.9-0.1c1.1,2.5,2.2,5.1,3.1,7.2c2.6-0.3,4.6-0.6,6.5-0.7
		c3.7-0.2,5-2.7,5-5.6c0-2.6-1-5.2-1.9-7.6c-1.4-3.5-7.5-6.8-11.3-6c-0.3-3.4-2.1-4.5-5.1-2.9c-0.6-1.7-0.9-3-1.4-4.2
		c-1.4-3.5-5.6-4.6-7.8-1.6c-2.6,3.5-5.5,5.2-9.7,4.4c-0.4-1.1-0.9-3.2-1.3-3.2c-2.6,0.2-5.2,0.8-7.9,1.3c0-0.5-0.1-1.5-0.1-2.5
		c0-4.1,0.2-8.1,0-12.2c-0.1-1.2-0.9-3.2-1.7-3.4c-1-0.3-2.5,0.8-3.7,1.6c-0.8,0.5-1.2,1.5-1.8,2.3c0.6-2.4,1.3-4.8,1.6-7.2
		c0.2-1.1-0.4-3.4-0.8-3.4c-3.7-0.2-3.5-3.2-4.5-5.5c-0.7-1.7-1.9-4.4-3.2-4.6c-5.3-0.9-10.8-1.5-16.1-1.2c-2.1,0.1-4,3.1-5.9,4.7
		c2-3.2,4.1-6.8,6.7-11.1c-8.1,0.5-15,0.9-20.3,1.3c-4-1.7-7-2.7-9.7-4.2c-2.3-1.2-6.6-3.3-6.4-4.2c1.7-7.7-5.5-9.7-8.9-13.1
		c-7.4-7.6-16.4-13.8-24.7-20.5c-0.6-0.5-1.3-0.8-2.6-1.5c-0.4,4.4-1.8,8.6-0.7,11.9c2,5.9-0.6,10.1-2.9,14.7
		c-1.3,2.6-3.5,4.1-5.9,1.6c-3.1-3.1-6.3-2.9-9.5-1.2c-0.9-2.1-1.8-3.9-2.3-5.8c-1.3-4.5-3-9-3.6-13.6c-0.4-3.5-0.6-4.8-4.6-3.7
		c-2.8,0.8-6.5,0.7-9.1-0.4c-3.3-1.4-5.7-4.7-8.8-6.5c-3.2-1.9-6.9-4.6-10.3,0.2c-0.5,0.7-2.2,0.9-3.3,0.9c-2.6-0.1-5.3-0.4-7.9-0.7
		c-5.2-0.8-9.9,1.9-8.6,6c1.8,5.6,3.1,11.4,5,16.8c2.2,6.1,4.8,11.7,1.2,17.6c-2.7,4.5-1.4,6.9,2.5,9.3c4.9,3.1,9.5,6.3,11.2,12.6
		c3.4,12.4,0.7,20.8-10.2,27.7c-4.1,2.6-3.8,4.9-1.5,8.4c1.7,2.5,3.5,5.4,3.8,8.2c0.9,7.4,9.1,13.4,3.4,21.2
		c-1.4,1.6-2.8,3.3-4.7,5.4c-5.4-5-10.9-10.1-16.3-15.3c2.1-0.3,3.6,0.3,5.2,0.6c3.6,0.8,5.5-2.3,2.7-5c-2.2-2-6.1-2.2-10.3-3.6
		c-0.4-3.9-0.8-9.3-1.7-14.6c-0.3-1.9-1.6-4.9-2.9-5.2c-3.8-0.9-8,0-11.8-1c-7.7-2.1-15.2-5.1-22.8-7.7c-0.2-0.1-0.3-0.6-0.5-0.8
		c-7.8-8.9-17-14.2-29.3-11.1c-1.4-6.4-2.7-12.8-4.1-19.3c-2.3-0.4-4.5-0.8-6.7-1.4c-0.9-0.3-2.4-1.3-2.4-2c0.2-4.2,0-8.8,1.5-12.6
		c2.6-7,5.9-13.8,9.7-20.2c2.1-3.5,5.4-6.8,8.9-8.9c2.7-1.6,4.6-2.8,4.5-6.1c0-1,0.2-2.2,0.7-3c1.2-2,2.7-3.8,4.1-5.6
		c3.1,0,7.6-0.1,8.7-2.2c2.3-4.1,6.9-8.4,2.9-14.1c1.4-0.9,2.8-1.8,4.5-2.9c-0.1,8.5,0.9,16.6-5.8,24.1c3.8,0,6.3,0,8.7,0
		c2.4,5.9,4.9,7,7.9,3.1c2.2-2.9,3.9-6.1,5.8-9.2c3.1,1.7,6.2,4.1,9.6,4.9c1.5,0.3,3.8-2.6,5.7-4.1c-1-1.3-1.9-2.7-3.1-3.7
		c-1.2-0.9-2.9-1.2-4-2.1c-4.8-3.8-9.5-7.9-14.4-11.7c-0.8-0.6-2.4-0.1-3.2-0.1c-2.8-3.4-5.6-6.6-8.3-9.8c1.9-0.7,3.2-0.2,4.5,0
		c2.1,0.4,4.6,1.6,6.3,0.9c5.3-2.3,9.7-6,11.9-11.6c0.6-1.7,0.1-4.2-0.7-5.9c-1.3-2.7-3.2-5.1-4.8-7.6c4.2-4.3,4.2-9.9,0.6-12
		c-2.8-1.6-5.5-3.5-9.3-5.9c6.7-0.3,12.2-0.4,17.6-1c1.5-0.2,2.9-1.8,4-2.5c3.2,2.3,6.6,4.8,9.2,6.7c0.2,2.3,0.4,4.1,0.6,5.9
		c1.8-0.4,3.6-0.8,6.2-1.4c1.6,1.1,3.9,2.9,6.5,4.3c6.8,3.6,9.6,11.4,5.7,17.9c-2.6,4.4-4.8,8.2,0.9,11.5c-4.1,6.9-10.9,4-15.9,5.1
		c-0.8,2.3-1.3,4.2-2,5.9c-1.4,3.5-1.4,6.5,2.4,8.5c3.3,1.7,6.3,2.2,8.5-1.7c0.4-0.8,1.3-1.7,2.2-1.8c5.3-1,10.9-5,15.4,1.8
		c0.6,1,2.3,1.2,3.4,2c0.9,0.6,1.5,1.5,2.3,2.1c1.9,1.7,3.7,3.9,6,4.8c2.7,1.1,6.4,0.2,8.6,1.7c5.5,3.8,11.5,2.4,17.3,2.6
		c1.3,0,3.7-1.1,3.7-1.5c-0.2-1.7-0.9-3.4-1.8-4.8c-0.6-0.8-2-1.1-3-1.6c-4.3-2.2-8.7-4.5-13-6.8c0.2-0.3,0.3-0.6,0.5-1
		c6.3,1.7,12.7,3.4,19.9,5.4c-0.2-7.3-2.7-12.2-5.9-16.7c-1.9-2.7-4.9-4.9-7.8-6.6c-4-2.3-8.4-3.9-12.7-5.8c0.5-0.5,1.1-0.9,1.6-1.4
		c-0.8-2.4-1.7-4.8-2.7-7.7c0.9,0.1,2.4-0.2,3.4,0.4c3.7,2.1,7.2,4.6,10.9,6.7c2.1,1.2,4.4,2.3,6.7,2.7c2.8,0.5,4.5-1.4,2.7-3.8
		c-1.7-2.4-0.9-3.7,0.1-6c1-2.3,0.5-5.2,0.7-7.9c0.2-1.9,1.2-4.8,0.5-5.3c-1.8-1.3-4.4-1.9-6.7-1.9c-3.2-0.1-6.1,0.2-8.4-2.7
		c-0.8-1-2.6-1.5-4-1.7c-6.2-1.1-12.5-1.9-20.1-3.1c2.4-3.1,3.8-5.1,5.4-6.9c3.5-4-2.6-2.9-2.8-5.4c-0.3-5.4-7.9-11.6-13.1-10.2
		c-3.5,1-5.1-1.1-6-2.7c-2.5-5-5.4-4.6-9.4-2c-0.9,0.6-2.8-0.5-4.2-0.8c1.9-5.5-4.2-4.9-5.9-7.8c-1.5-2.5-4-4.4-6-6.5
		c-3.1-3.2-5.7-7-11.3-4.9c-2.2,0.8-4.9,1.1-7.2,0.7c-5.8-1-8.7,3.2-11.2,6.7c-2.4,3.4-3.4,8,0.3,11.8c-1,1.7-1.9,3.3-2.8,5
		c-1.9-8.2-2.8-16,3.1-23.5c-3.8,0.2-7,0.7-9.5,2.3c-7,4.6-7.3,12.2-8,19.5c-0.4,4.6-2.4,10.3,6.6,10.7c-2.6,1.1-4.1,1.7-6.8,2.8
		c3.3,3,5.5,6,8.5,7.5c3.1,1.5,6.9,1.4,9.2,1.8c0.6,5,1.1,8.9,1.6,12.2c-0.7,2.8-1.3,5.2-2,7.6c-1.1,4-2.3,7.9-3.7,12.5
		c-4-3.6-5.4-6.8-4.3-11c1.5-5.7-0.1-8.9-6.3-12.3c-0.9,2.4-1.8,4.6-2.7,7.1c-3.6-3.8-0.4-12.3-10.1-11.2c4.2-4.3,3.6-7.9,1.2-11.6
		c-0.8-1.1-1.2-2.8-1.1-4.1c0.5-4.7-1.3-8.1-4.8-10c1.5-3.4,2.9-6.5,3.9-8.8c1.9-0.9,4-1.2,4.8-2.4c2-3,3.6-6.3,5-9.7
		c0.4-0.9,0.2-3.2-0.3-3.4c-4-1.4-8-2.8-12.2-3.6c-1-0.2-3.5,1.8-3.6,3.1c-0.9,7.1-1.4,14.3-2.1,21.5c-0.1,1.2-0.4,2.8-1.2,3.6
		c-5.4,5.7-5.9,12.8-5.4,20c0.1,1.8,2.3,3.7,3.9,5.2c1.4,1.3,3.2,2.1,4.8,3.1c-3,6.9-3,6.9,1.1,9.6c-3.4,2.6-6.6,5-9.9,7.5
		c-0.3-2.5-0.5-4.6-0.7-6.9c4.6-2.6,5.3-3.8,2.5-8.8c-1.9-3.6-4.6-6.7-7-10c-0.8,0.4-1.3,0.5-1.6,0.9c-2.6,2.8-5.2,5.6-7.5,8.6
		c-0.4,0.6,0.3,2.7,1.1,3.3c1.6,1.3,3.6,2.1,4.7,2.8c-1.5,2.8-2.8,5.2-4.4,8.1c-4.6-0.8-10-1.7-15.4-2.7c-0.6-0.1-1.1-0.7-1.7-1
		c-5.1-3.6-9.3-7.8-8.6-15.4c-4.5,0.5-8.3,0.6-11.9,1.5c-1.5,0.4-2.6,2.6-3.8,4c1.5,0.6,3.1,1.4,4.6,1.8c1.1,0.3,2.3,0.1,3.5,0.1
		c-9.8,0.4-4.6,9.5-7.9,14.8c-0.2-1.9-0.4-2.5-0.4-3.1c0.6-7.6-3.8-12.8-11.1-12.7c-6,0.1-9.8-3.6-14.2-7.3c6.8-1.5,7.7-3.4,4.8-9
		c-0.7-1.3-1.6-2.5-2.4-3.8c6.3,0.9,6.6,1.5,6.5,7.6c0,1.5,1.1,3.9,2.3,4.3c9.2,3.3,18.5,4.4,27.4-2c1.5,2,2.6,4.8,4.6,6
		c3.3,1.9,7.4,4.1,10.8,3.6c4.9-0.7,4.7-5.2,2-9.5c2.4,0.4,3.9,0.7,5.4,1c2.1-3.3,1.8-5.3-1.3-8c-3.2-2.8-6.6-6.8-7.4-10.8
		c-1.1-5.2,0.3-10.9,0.5-16.4c0.1-2.6,0-4.5,3.1-5.8c1.4-0.6,2.7-3.4,2.7-5.2c0-1.6-1.5-3.8-3-4.5c-3.9-2.1-12.1,2.8-12.7,7.3
		c-0.5,3.6-1,7.1-1.5,10.7c-0.5-1.9-0.4-3.7-0.8-5.5c-0.6-2.3-1.7-4.4-2.7-6.7c-1.6,0.9-3.2,1.8-4.8,2.6c-1-5-3.5-8.1-8-7.2
		c1.8-8.3-2-17-9.3-21.9c-1-0.6-2.1-1.5-2.4-2.5c-2.3-6.9-8.8-5.5-13.6-7.9c-1.2,3.5-1.6,7-3.4,9.1c-3.2,3.7-7.3,6.8-11.2,9.8
		c-2.8,2.2-3.4,4.3-1.8,7.7c1,2.2,0.4,5.1,1,7.6c0.3,1.3,1.5,3.2,2.5,3.4c2.7,0.5,5.6,0.4,8.4,0.2c1.1-0.1,2.1-1.2,3.1-1.9
		c2.2-1.7,4.4-3.5,6.6-5.3c0.6,0.4,1.3,0.8,1.9,1.2c-6.6,3.6-6,8-2.4,11.6c-1.9,2-4.5,3.7-4.3,4.8c0.4,2.1,2.1,4.3,3.9,5.5
		c2.3,1.5,5.2,1.9,7.8,3c2.5,1.1,5,2.6,7.4,3.9c-0.3,0.5-0.6,1-0.9,1.6c-1.6-0.7-3.2-1.6-4.9-2.1c-3.8-0.9-7.7-1.8-11.6-2.1
		c-0.9-0.1-3.1,2.3-2.9,3.2c0.6,3.3,1.9,6.5,3,9.8c-2.6-0.9-5.8-1.2-7.6-2.9c-3.3-3.1-6.2-6.9-8.5-10.8c-4.1-6.9-4.8-7.5-11.6-5.5
		c0.5-2.9,0.9-5.8,1.6-10c-3.4,2.3-5.6,3.8-8.7,5.8c-0.1-6.2,4.9-12.6-2.3-17c-3.4,8.1-3.7,8.3-7.6,4.8c0.8-1.2,2.3-2.6,2-3.5
		c-0.3-1-2.1-2.1-3.4-2.3c-3.4-0.5-6.9-0.4-10.4-0.7c-1.3-0.1-2.9-0.6-3.7-1.5c-3.8-4.8-8.3-4.8-12.5,1.6
		c-1.4-5.6-2.2-10.3-3.9-14.6c-1-2.6-2.9-5.1-5.1-6.9c-0.5-0.4-3.8,1.8-5.3,3.2c-6.5,6.2-12.9,12.5-19.3,18.8
		c-16.8,16.4-33.6,32.8-50.3,49.3c-4.3,4.3-3.9,6.9,1.5,9.9c0.7,0.4,1.3,0.9,1.5,1.1c-0.5,6.6-1,12.7-1.6,19.6
		c2.3,0,5.1,0.4,7.7-0.1c5.5-1,6.8,0.2,5.7,5.4c-0.3,1.3-0.3,2.6-0.4,3.9c-0.6,6.7-1.4,13.3-1.8,20c-0.4,6.4-3.6,12.6-0.4,19.4
		c2.9,6.3-0.9,13.9-7.6,17c-3.8,1.7-4.2,5-4.2,8.3c0.1,3.3-2.2,7.7,2.7,9.3c-2.1,2.4-4.2,4.8-6.2,7.2c0.6,0,1.2,0.1,1.8,0.1
		c1.4,3.2,2.7,6.5,4.1,9.7c-0.5,0-1-0.1-1.5-0.1c-1.3,1.9-2.9,3.7-3.8,5.8c-1,2.2-1.5,4.6-2,6.3c-2.4-0.8-4.4-1.5-7.2-2.4
		c-0.4,13,3.2,23.8,9.3,35.1c-0.7,3.3,2.5,9.9,6.8,11.9c2.7,1.2,5,0.4,4.8-2.7c-0.2-4.6-1.1-9.2-1.7-13.8c1.9,2.4,3.3,5.4,4.9,8.3
		c1.2,2.1,2.3,5,4.2,6c14.7,7.6,29.5,15.2,44.6,22c48.6,21.9,99.7,34.5,152.8,39c2,0.2,4.1-0.9,6.6-1.4c-0.5,5.6,4.1,7.5,9,8.9
		c1.8,0.5,4.3-0.6,5.6,0.4c6,4.1,12.6,5.4,19.6,6c4.2,0.3,9,3.3,10.3-3.9c0-0.3,0.5-0.5,0.7-0.7c4.6-3.2,8.3-9.3,15.3-4.6
		c0.3,0.2,1,0.1,1.5,0c2.6-0.4,3.9,0.8,4.6,3.3c1.5,5.2,4.6,8,10.1,6c1.7,4.2,3.4,8.1,4.9,12c2.3,5.9,8,5.7,12.8,7.2
		c-0.2,1.4-0.4,2.8-0.6,4.2c2.8,0.6,5.2,1.1,7.6,1.8c6.1,1.6,6.5,1.4,8.6-4.7c7.4,0.8,13.5,7.6,11.4,14.1c-2.8-1.9-5.4-3.8-8.1-5.3
		c-1.6-0.9-3.5-1.3-5.3-1.9c-0.3,0.4-0.7,0.9-1,1.3c3.8,4.7,4.6,9.5,1.8,14.7c-0.4,0.8-0.4,2.1,0,2.9c1.5,3.4-0.6,5.5-2.2,8.1
		c-2.8,4.6-5.2,9.5-7.8,14.2c0.5,0.6,1,1.2,1.5,1.8c2.7-1.1,5.5-1.9,8.1-3.2c4.7-2.4,7.6-8.7,14.5-6.6c0.5,0.1,1.2-0.3,1.8-0.6
		c3.1-1.7,6.2-3.3,9.1-5.2c1.2-0.7,2.6-2.2,2.6-3.3c0-1.2-1.3-2.7-2.4-3.6c-0.7-0.6-2-0.4-4.2-0.7c6.2-4.4,11.4-8.1,18.4-7.9
		c1.2,0,2.9-0.1,3.7-0.9c3.2-3.2,6.5-6.4,9.1-10.1c3.4-4.7,7.7-7.2,13.2-9c7.8-2.6,16.5-2.4,23-9.4c3.3-3.6,3.5-7.3,4.1-11
		c0.9-5.5,0.8-11.2,1.1-16.9c3.2-0.1,5-0.4,6.6-1.1c3.3-1.3,5.7-0.9,6.9,2.9c1.2,3.6,2.5,7.2,4.1,10.6c3.5,7.3,9.5,8.8,16,4
		c2-1.5,4.2-2.9,5.7-4.8c2.9-3.8,6.7-4,10.9-3.7c-7.5,2.7-9.9,9.1-12.2,15.8c-1.2,3.6-0.1,6.2,3.3,7.8c3.5,1.6,6.5,1.3,8.2-2.5
		c1.2-2.8,1.8-5.9,3-8.7c0.8-1.9,1.5-4.1,2.9-5.5c5.5-5.2,11.3-10.1,16.7-15.4c1.3-1.3,1.6-3.7,2.7-6.5c4-1.2,6.8-4.9,5.2-8.8
		c-0.6-1.4-3.1-2-4.8-2.9c-1.4-0.6-1.9-2.5-3-3.9c-1-1.1-2.6-2.1-4.1-2.2c-0.6-0.1-2,2.2-2,3.4c-0.2,5.1-0.1,10.2-0.1,15.6
		c-1.7,0.6-4,1.3-7,2.2c0.3-2.1,0.4-3.5,0.6-4.9c0.3-1.6,0.6-3.3,0.9-4.9c-1.9,0.1-4.1-0.5-5.6,0.4c-4.3,2.5-8.4,3.6-13.3-0.9
		c-0.6,3.1-1,5.3-1.4,7.5L529.2,427.7z M258.3,121.9c-2.4,0.8-3.4,0.9-4.2,1.4c-1.2,0.6-3.4,1.5-3.3,2.1c0.2,1.4,1.2,3.7,2.2,3.9
		c2.9,0.7,6,0.7,9,0.7c2.9-0.1,6.4-1.8,8.7-0.7c5.4,2.5,8.2,0.6,9.9-4.2c0.7-2,1.7-4.7,1-6.3c-0.6-1.4-3.6-1.7-6.2-2.8
		c0.3-1.7,0.9-4.3,0.9-6.9c0-1.1-1.5-2.2-2.3-3.3c-1.5,2-3.7,3.7-4.4,6c-0.8,2.2-0.2,4.9-0.2,7.4c-0.7,0.5-1.5,1.1-2.2,1.6
		c-0.6-1.4-1.6-2.7-1.6-4.1c0.1-3.9-1.5-6.7-3.9-9.8c-2.2-2.9-4.2-2.9-6.1-1.4c-4,3.1-7.6,6.7-11.4,10.1c0.1,0.6,0.1,1.2,0.2,1.8
		C248.6,118.7,252.8,120.1,258.3,121.9z M299.1,157c1.4-1.9,2.9-3.1,3.5-4.7c0.5-1.3,0.5-3.6-0.3-4.3c-4.3-3.6-11.9-2.2-15.5,2.3
		c1,2.3,2,4.5,2.9,6.4c-2.9-0.4-5-0.7-7-1.1c0,2.4,0,4.9,0.1,7.3c0,0.3,0.4,0.5,0.6,0.8c2.3,3.6,4.5,7.3,6.8,10.8
		c0.9,1.4,2.1,2.7,3.7,4.7c3.6-3.8,7.2-6.7,9.7-10.4C306.8,163.8,303.9,159.8,299.1,157z M233.7,98.7c3.3,2.8,5.9,6.6,7.8,6.3
		c4.5-0.7,9.3-0.3,13.3-1.9c3-1.2,5.1-5.3,7.2-8.3c0.4-0.6-0.9-3.2-1.8-3.4c-2.8-0.7-6.2-1.7-8.7-0.8
		C246.1,92.4,240.9,95.4,233.7,98.7z M293.4,127.8c-0.7,4.9,0.7,7.2,5.8,6.8c2.8-0.2,4.2-1,4.6-3.9c0.4-3.3,1.3-6.5,1.5-9.8
		c0.2-2.6,1.3-5.6-3-6.7c-4.5-1.2-7.9,1.1-11.4,2.8c-0.9,0.5-0.5,3.2-1.3,4.6C286.9,126.7,286.9,126.8,293.4,127.8z M289.5,81.2
		c1.3,3,5.5,5.8,0.2,8.6c0.7,1.3,1.1,2.8,2.1,3.7c1.9,1.9,4,3.5,6.2,5.1c1.3,1,2.8,1.7,4.2,2.6c0.6-1.7,1.8-3.4,1.8-5
		c-0.1-5.4-2.5-9.7-6.1-13.9C294.7,78.5,293.8,77.8,289.5,81.2z M47.2,307.4c0.7,0,1.3,0.1,2,0.1c0.8-2.3,1.4-4.6,2.3-6.8
		c1.2-2.9,1.9-6.3,4.1-8.3c4.2-3.9,2.5-6.8-0.4-10.1c-2.2-2.6-4.2-2.2-5,0.9c-1.6,5.9-2.9,11.8-3.9,17.8
		C46,303,46.9,305.3,47.2,307.4z M539.5,390.8c-7.2-4.9-14.6-3.2-21.6-3c-1.4,0-2.7,2.2-4.6,3.9
		C522.6,394.5,530.5,396.8,539.5,390.8z M380.4,217c0.9,0.9,2.4,3.6,4.6,4.4c3,1,7.2-2.8,7.4-5.6c0.2-4.5-2.6-9-5.7-9.2
		C383,206.3,380.9,209.1,380.4,217z M360.5,285.8c2.9-2.8,5.5-4.9,7.5-7.5c0.7-1,0-3.1-0.1-4.6c-2.4,0.3-4.9,0.6-7.3,0.9
		c-0.3,0-0.8,0.2-0.9,0.4c-1,2.2-2.4,4.3-2.8,6.6C356.6,282.5,358.6,283.8,360.5,285.8z M318.2,137.7c-2.9-4.1-5-7.1-7.1-10.1
		c-1.8,2.1-5.6,5.3-5.1,6.1c1.5,2.7,4.4,4.7,7.1,6.5C313.6,140.6,315.6,139,318.2,137.7z M309.2,101.4c4.6,0.2,5.9-1.2,4.7-4.5
		c-0.6-1.6-0.8-3.4-1.9-4.5c-1.4-1.5-3.5-2.4-5.2-3.6c-0.3,2-0.7,3.9-0.7,5.9c0,1.4,0.4,3,1,4.3
		C307.7,100.1,308.9,101.1,309.2,101.4z M375,282.5c2.1,2.6,3.6,4.5,5.1,6.3c1.4-2.1,3.5-4.1,4.2-6.4c1-3.2-1.5-5.4-4.3-5.3
		C378.5,277.2,377.1,280.1,375,282.5z"/>
	<path stroke="#000000" d="M222.6,183.5c0.8,1.2,1.7,2.4,2.4,3.8c2.9,5.7,2,7.6-4.8,9c4.4,3.7,8.2,7.4,14.2,7.3
		c7.2-0.1,11.7,5.1,11.1,12.7c0,0.6,0.1,1.2,0.4,3.1c3.4-5.3-1.8-14.4,7.9-14.8c-1.2,0-2.4,0.2-3.5-0.1c-1.6-0.4-3.1-1.2-4.6-1.8
		c1.3-1.4,2.3-3.6,3.8-4c3.6-0.9,7.4-1,11.9-1.5c-0.8,7.6,3.4,11.8,8.6,15.4c0.5,0.4,1.1,0.9,1.7,1c5.4,1,10.8,1.9,15.4,2.7
		c1.6-2.9,2.9-5.3,4.4-8.1c-1.1-0.6-3.1-1.5-4.7-2.8c-0.8-0.7-1.5-2.8-1.1-3.3c2.3-3,4.9-5.8,7.5-8.6c0.3-0.3,0.8-0.5,1.6-0.9
		c2.4,3.3,5.1,6.5,7,10c2.7,5,2.1,6.2-2.5,8.8c0.2,2.4,0.5,4.4,0.7,6.9c3.3-2.5,6.5-5,9.9-7.5c-4.1-2.7-4.1-2.7-1.1-9.6
		c-1.6-1-3.4-1.8-4.8-3.1c-1.6-1.5-3.8-3.4-3.9-5.2c-0.5-7.2,0-14.3,5.4-20c0.8-0.8,1.1-2.3,1.2-3.6c0.7-7.2,1.1-14.3,2.1-21.5
		c0.2-1.2,2.6-3.3,3.6-3.1c4.1,0.7,8.2,2.1,12.2,3.6c0.5,0.2,0.7,2.4,0.3,3.4c-1.5,3.3-3,6.7-5,9.7c-0.8,1.2-2.9,1.5-4.8,2.4
		c-1,2.3-2.4,5.4-3.9,8.8c3.4,2,5.2,5.4,4.8,10c-0.1,1.3,0.3,3,1.1,4.1c2.4,3.7,3,7.2-1.2,11.6c9.7-1.1,6.4,7.5,10.1,11.2
		c0.9-2.4,1.8-4.7,2.7-7.1c6.2,3.4,7.8,6.6,6.3,12.3c-1.1,4.2,0.3,7.4,4.3,11c1.4-4.6,2.6-8.5,3.7-12.5c0.7-2.4,1.2-4.8,2-7.6
		c-0.4-3.3-0.9-7.2-1.6-12.2c-2.3-0.4-6.1-0.3-9.2-1.8c-3-1.5-5.3-4.5-8.5-7.5c2.7-1.1,4.2-1.7,6.8-2.8c-9-0.4-7-6.1-6.6-10.7
		c0.7-7.2,1-14.9,8-19.5c2.5-1.6,5.7-2.1,9.5-2.3c-5.9,7.6-5,15.4-3.1,23.5c0.9-1.7,1.8-3.2,2.8-5c-3.7-3.8-2.7-8.4-0.3-11.8
		c2.5-3.5,5.3-7.7,11.2-6.7c2.3,0.4,5,0.1,7.2-0.7c5.6-2.1,8.2,1.7,11.3,4.9c2.1,2.2,4.6,4,6,6.5c1.7,2.9,7.9,2.3,5.9,7.8
		c1.4,0.3,3.4,1.3,4.2,0.8c4-2.6,6.8-3,9.4,2c0.9,1.7,2.4,3.7,6,2.7c5.2-1.4,12.8,4.9,13.1,10.2c0.1,2.5,6.3,1.3,2.8,5.4
		c-1.6,1.8-3,3.8-5.4,6.9c7.6,1.1,13.9,2,20.1,3.1c1.4,0.2,3.2,0.7,4,1.7c2.3,2.9,5.2,2.6,8.4,2.7c2.3,0,4.9,0.7,6.7,1.9
		c0.7,0.5-0.3,3.5-0.5,5.3c-0.2,2.6,0.3,5.6-0.7,7.9c-1,2.3-1.8,3.6-0.1,6c1.8,2.5,0.1,4.3-2.7,3.8c-2.3-0.4-4.6-1.5-6.7-2.7
		c-3.7-2.1-7.2-4.6-10.9-6.7c-1-0.6-2.5-0.3-3.4-0.4c1,2.9,1.8,5.3,2.7,7.7c-0.5,0.5-1.1,0.9-1.6,1.4c4.3,1.9,8.7,3.5,12.7,5.8
		c2.9,1.7,6,3.9,7.8,6.6c3.1,4.5,5.6,9.5,5.9,16.7c-7.2-2-13.6-3.7-19.9-5.4c-0.2,0.3-0.3,0.6-0.5,1c4.3,2.3,8.7,4.5,13,6.8
		c1,0.5,2.5,0.8,3,1.6c1,1.4,1.7,3.2,1.8,4.8c0,0.4-2.4,1.6-3.7,1.5c-5.8-0.2-11.8,1.2-17.3-2.6c-2.2-1.5-5.9-0.6-8.6-1.7
		c-2.3-0.9-4-3.1-6-4.8c-0.8-0.7-1.5-1.6-2.3-2.1c-1.1-0.7-2.8-1-3.4-2c-4.5-6.8-10.1-2.8-15.4-1.8c-0.8,0.1-1.7,1.1-2.2,1.8
		c-2.2,3.9-5.2,3.5-8.5,1.7c-3.8-2-3.8-5-2.4-8.5c0.7-1.8,1.2-3.6,2-5.9c5-1.1,11.8,1.9,15.9-5.1c-5.7-3.3-3.5-7.2-0.9-11.5
		c3.9-6.5,1.2-14.3-5.7-17.9c-2.6-1.3-4.8-3.2-6.5-4.3c-2.6,0.6-4.4,1-6.2,1.4c-0.2-1.8-0.3-3.6-0.6-5.9c-2.7-1.9-6-4.4-9.2-6.7
		c-1.1,0.7-2.5,2.3-4,2.5c-5.4,0.6-10.9,0.7-17.6,1c3.8,2.4,6.5,4.3,9.3,5.9c3.5,2.1,3.5,7.8-0.6,12c1.6,2.4,3.6,4.8,4.8,7.6
		c0.8,1.7,1.3,4.2,0.7,5.9c-2.2,5.5-6.6,9.3-11.9,11.6c-1.7,0.7-4.2-0.5-6.3-0.9c-1.3-0.3-2.6-0.7-4.5,0c2.7,3.2,5.4,6.4,8.3,9.8
		c0.8,0,2.4-0.5,3.2,0.1c4.9,3.8,9.6,7.9,14.4,11.7c1.2,0.9,2.9,1.1,4,2.1c1.2,1,2.1,2.4,3.1,3.7c-1.9,1.5-4.2,4.4-5.7,4.1
		c-3.4-0.8-6.5-3.2-9.6-4.9c-1.9,3.1-3.6,6.3-5.8,9.2c-3,3.8-5.5,2.8-7.9-3.1c-2.4,0-4.8,0-8.7,0c6.8-7.5,5.7-15.6,5.8-24.1
		c-1.8,1.1-3.2,2-4.5,2.9c4,5.6-0.6,10-2.9,14.1c-1.1,2-5.7,2.1-8.7,2.2c-1.4,1.9-2.9,3.7-4.1,5.6c-0.5,0.8-0.7,2-0.7,3
		c0.1,3.3-1.8,4.5-4.5,6.1c-3.5,2.1-6.8,5.4-8.9,8.9c-3.8,6.4-7.1,13.2-9.7,20.2c-1.5,3.9-1.2,8.4-1.5,12.6c0,0.6,1.4,1.7,2.4,2
		c2.2,0.7,4.5,1,6.7,1.4c1.4,6.5,2.7,12.9,4.1,19.3c12.3-3.1,21.5,2.2,29.3,11.1c0.2,0.2,0.3,0.7,0.5,0.8c7.6,2.6,15.1,5.6,22.8,7.7
		c3.7,1,8,0.1,11.8,1c1.3,0.3,2.6,3.3,2.9,5.2c0.9,5.3,1.3,10.7,1.7,14.6c4.3,1.4,8.2,1.6,10.3,3.6c2.9,2.6,0.9,5.8-2.7,5
		c-1.6-0.3-3.1-0.9-5.2-0.6c5.5,5.1,10.9,10.2,16.3,15.3c1.9-2.2,3.3-3.8,4.7-5.4c5.7-7.7-2.5-13.7-3.4-21.2
		c-0.4-2.9-2.2-5.7-3.8-8.2c-2.3-3.5-2.6-5.8,1.5-8.4c11-6.9,13.6-15.3,10.2-27.7c-1.7-6.3-6.3-9.5-11.2-12.6
		c-3.9-2.4-5.2-4.8-2.5-9.3c3.6-5.9,1-11.5-1.2-17.6c-2-5.4-3.3-11.2-5-16.8c-1.3-4,3.4-6.8,8.6-6c2.6,0.4,5.2,0.7,7.9,0.7
		c1.1,0,2.8-0.2,3.3-0.9c3.4-4.8,7.1-2.1,10.3-0.2c3.1,1.8,5.6,5.1,8.8,6.5c2.6,1.1,6.3,1.2,9.1,0.4c4-1.1,4.2,0.3,4.6,3.7
		c0.6,4.6,2.2,9.1,3.6,13.6c0.6,1.9,1.5,3.7,2.3,5.8c3.2-1.7,6.4-1.9,9.5,1.2c2.4,2.4,4.6,0.9,5.9-1.6c2.3-4.6,4.9-8.8,2.9-14.7
		c-1.1-3.4,0.4-7.6,0.7-11.9c1.2,0.7,2,1,2.6,1.5c8.3,6.7,17.3,12.9,24.7,20.5c3.4,3.5,10.6,5.4,8.9,13.1c-0.2,0.9,4,3,6.4,4.2
		c2.8,1.4,5.7,2.5,9.7,4.2c5.3-0.3,12.2-0.8,20.3-1.3c-2.6,4.3-4.8,7.9-6.7,11.1c1.9-1.6,3.8-4.6,5.9-4.7c5.3-0.3,10.8,0.3,16.1,1.2
		c1.3,0.2,2.5,2.9,3.2,4.6c1,2.3,0.8,5.3,4.5,5.5c0.3,0,0.9,2.3,0.8,3.4c-0.3,2.4-1.1,4.8-1.6,7.2l0.1-0.2c-2.3,2.3-4.4,4.8-6.8,7
		c-5.4,4.9-5.7,12.1-8.3,18.2c-0.6,1.4-1.5,3-2.7,3.6c-9.7,4.2-19.4,8-29.1,12.1c-3.7,1.5-7.8,2.6-10.7,5c-2.5,2.1-3.6,5.8-5.4,8.8
		c-0.9,1.6-1.8,3.2-2.8,4.6c-2.3,3.4-5.4,6.4-7,10c-2.7,5.9-4.5,12.3-6.6,18.5c0.4,0.2,0.8,0.3,1.3,0.5c0.8-1.8,1.5-3.7,2.3-5.5
		c5-11.3,12.2-20.8,22.8-27.5c4-2.6,8.4-3,12.9-1.3c3.3,1.3,4.5,3.9,2.6,6.7c-2.5,3.7-4.4,8.5-10.3,8.2c0.1,0.5,0.3,0.9,0.4,1.4
		c1.6-0.3,3.4-0.2,4.8-0.9c3.9-1.9,6.8-0.7,6.4,3.3c-0.3,4.2,2.5,6.1,5.1,8.4c4.7,3.6,9.8,4.2,15.4,2.8c-5-1-10.1-2.1-15.1-3.1
		c0.4-2.2,0.8-4.4,1.4-7.5c4.8,4.5,8.9,3.4,13.3,0.9c1.4-0.8,3.7-0.3,5.6-0.4c-0.3,1.6-0.7,3.3-0.9,4.9c-0.2,1.4-0.4,2.8-0.6,4.9
		c3-0.9,5.2-1.7,7-2.2c0-5.4-0.1-10.5,0.1-15.6c0.1-1.2,1.5-3.4,2-3.4c1.5,0.2,3.1,1.1,4.1,2.2c1.1,1.3,1.6,3.2,3,3.9
		c1.7,0.9,4.2,1.5,4.8,2.9c1.6,3.9-1.3,7.6-5.2,8.8c-1.1,2.7-1.4,5.2-2.7,6.5c-5.4,5.3-11.3,10.1-16.7,15.4
		c-1.4,1.4-2.2,3.5-2.9,5.5c-1.1,2.9-1.7,5.9-3,8.7c-1.7,3.8-4.8,4.2-8.2,2.5c-3.4-1.6-4.5-4.1-3.3-7.8c2.3-6.6,4.7-13.1,12.2-15.8
		c-4.2-0.3-8-0.1-10.9,3.7c-1.5,1.9-3.7,3.4-5.7,4.8c-6.6,4.8-12.5,3.4-16-4c-1.6-3.4-2.9-7-4.1-10.6c-1.3-3.8-3.6-4.1-6.9-2.9
		c-1.7,0.7-3.5,1-6.6,1.1c-0.3,5.6-0.2,11.3-1.1,16.9c-0.6,3.8-0.8,7.5-4.1,11c-6.4,7-15.2,6.8-23,9.4c-5.5,1.8-9.8,4.3-13.2,9
		c-2.6,3.6-5.9,6.9-9.1,10.1c-0.8,0.8-2.4,0.9-3.7,0.9c-6.9-0.2-12.1,3.5-18.4,7.9c2.2,0.3,3.5,0.1,4.2,0.7c1.1,0.9,2.4,2.4,2.4,3.6
		c0,1.1-1.4,2.5-2.6,3.3c-2.9,1.9-6,3.5-9.1,5.2c-0.6,0.3-1.3,0.8-1.8,0.6c-6.8-2.1-9.7,4.2-14.5,6.6c-2.6,1.3-5.4,2.2-8.1,3.2
		c-0.5-0.6-1-1.2-1.5-1.8c2.6-4.8,5-9.6,7.8-14.2c1.5-2.6,3.7-4.7,2.2-8.1c-0.4-0.8-0.4-2.2,0-2.9c2.8-5.2,1.9-10.1-1.8-14.7
		c0.3-0.4,0.7-0.9,1-1.3c1.8,0.6,3.7,1,5.3,1.9c2.7,1.5,5.3,3.4,8.1,5.3c2-6.6-4-13.4-11.4-14.1c-2.1,6.1-2.5,6.3-8.6,4.7
		c-2.4-0.6-4.8-1.1-7.6-1.8c0.2-1.5,0.4-2.8,0.6-4.2c-4.8-1.5-10.5-1.3-12.8-7.2c-1.5-3.9-3.2-7.8-4.9-12c-5.5,2-8.6-0.7-10.1-6
		c-0.7-2.4-2-3.6-4.6-3.3c-0.5,0.1-1.1,0.2-1.5,0c-7-4.7-10.7,1.4-15.3,4.6c-0.3,0.2-0.7,0.4-0.7,0.7c-1.2,7.2-6.1,4.2-10.3,3.9
		c-7-0.6-13.6-1.9-19.6-6c-1.3-0.9-3.9,0.2-5.6-0.4c-4.9-1.4-9.5-3.3-9-8.9c-2.5,0.6-4.6,1.6-6.6,1.4c-53.1-4.5-104.1-17.1-152.8-39
		c-15.1-6.8-29.8-14.4-44.6-22c-1.9-1-3-3.8-4.2-6c-1.6-2.9-3-5.9-4.9-8.3c0.6,4.6,1.5,9.2,1.7,13.8c0.1,3.1-2.1,4-4.8,2.7
		c-4.3-2-7.5-8.6-6.8-11.9c-6.1-11.3-9.8-22.1-9.3-35.1c2.7,0.9,4.8,1.6,7.2,2.4c0.5-1.7,1-4.1,2-6.3c1-2.1,2.5-3.8,3.8-5.8
		c0.5,0,1,0.1,1.5,0.1c-1.4-3.2-2.7-6.5-4.1-9.7c-0.6,0-1.2-0.1-1.8-0.1c2.1-2.4,4.1-4.8,6.2-7.2c-4.9-1.6-2.6-6-2.7-9.3
		c0-3.2,0.4-6.5,4.2-8.3c6.7-3.1,10.5-10.7,7.6-17c-3.2-6.9,0-13,0.4-19.4c0.5-6.7,1.2-13.3,1.8-20c0.1-1.3,0.1-2.7,0.4-3.9
		c1.2-5.3-0.2-6.4-5.7-5.4c-2.6,0.5-5.4,0.1-7.7,0.1c0.6-6.9,1.1-13,1.6-19.6c-0.2-0.2-0.8-0.7-1.5-1.1c-5.4-3-5.9-5.7-1.5-9.9
		c16.8-16.5,33.5-32.9,50.3-49.3c6.4-6.3,12.8-12.6,19.3-18.8c1.6-1.5,4.8-3.7,5.3-3.2c2.1,1.8,4.1,4.3,5.1,6.9
		c1.6,4.4,2.4,9,3.9,14.6c4.1-6.5,8.6-6.5,12.5-1.6c0.7,0.9,2.4,1.4,3.7,1.5c3.5,0.4,7,0.3,10.4,0.7c1.3,0.2,3.1,1.3,3.4,2.3
		c0.3,0.9-1.3,2.3-2,3.5c3.9,3.5,4.2,3.4,7.6-4.8c7.2,4.4,2.2,10.8,2.3,17c3-2,5.2-3.5,8.7-5.8c-0.7,4.2-1.1,7-1.6,10
		c6.8-2,7.5-1.3,11.6,5.5c2.3,3.9,5.2,7.7,8.5,10.8c1.8,1.7,5,2,7.6,2.9L222.6,183.5z M303.3,379.2c-3.5,3.5-6.9,7.1-10.7,10.4
		c-3,2.6-4.3,5.4-4.4,9.4c-0.1,5.6-1,11.2-1.5,16.8c-0.4,4.6-1.3,9.3-1.1,13.9c0.1,2.4,2.7,4.6,3.5,7.1c1.3,3.9,4.8,6.6,8.9,6.6
		c2,0,4,0.5,5.9,1.2c3.3,1.4,6.9,4.9,9.6,4.3c4.3-1,7.6,1.2,11.3,1.3c1.2,0,3,0,3.4-0.6c4.9-7.2,9.9-13.7,20.1-9.1
		c0.1,0.1,0.3,0,0.5,0c3.6-0.6,5.4,1.2,6.4,4.6c1.1,3.8,3,6.3,7.6,4.8c0.9-0.3,3,0.8,3.4,1.8c1.4,3.4,2,7.3,3.7,10.5
		c1.2,2.2,3.6,4.5,5.9,5.3c3.2,1.2,6.8,1.3,10.3,1.5c8.8,0.5,17.2,1.3,23.5,9c3.2,4,1.8,6.8,0.9,10.7c-4.4-1.8-8.1-3.3-11-4.5
		c-0.7,4-2.6,8.6-1.8,12.7c1,5.5-1.7,8.6-4.2,12.5c-1.9,3-3.1,6.3-4.7,9.5c0.6,0.6,1.2,1.3,1.9,1.9c8.1-9.9,20.5-11.5,30.8-18.4
		c-2-0.5-4.1-1-6.1-1.5c0.7-6.1,13.2-12.8,20.9-11.7c4.9-5.2,9.7-10.3,14.6-15.4c0.6-0.6,1.2-1.2,2-1.5c3.2-1.3,3-3.4,1.4-6.4
		c-2.3,0.6-4.9,0.7-7,1.9c-5.7,3.2-10.7,1.8-16-1c-2.4-1.3-5.3-2-8-2.2c-6.4-0.4-14.6-7.6-15.6-14.2c-1.8-11.3-3.5-22.6-5.3-33.8
		c-0.4-2.4-0.7-6.4-1.9-6.7c-5.6-1.5-7.4-6.8-11.2-9.9c-3.6-2.9-6.8-6.2-10.1-9.5c-0.8-0.8-1.3-2.3-1.4-3.5
		c-0.6-7.1-1.1-14.2-1.7-21.7c-5.6-0.3-10.7-0.4-15.8-0.8c-1.6-0.1-3.3-0.3-4.7-0.9c-4.1-1.6-8.2-3.4-12.2-5.3
		c-1.7-0.8-3.4-1.9-4.7-3.3c-2.1-2.2-4-4.8-6.1-7.4c-10.5,11.3-19.9,21.5-29.4,31.8c0.8-1.4,1.3-3,2.4-4.2c4.5-5.1,9.2-10,13.8-15.1
		c3.5-3.9,6.9-7.9,10-11.5c-6.3-6-13.4-5.2-20-2.9c-1.4-7.2-2.7-13.6-4-19.9c-0.8-0.2-1.3-0.3-1.8-0.4c-7.4-1.4-7.4-1.4-7.1-8.9
		c0.2-6.6,0-6.8-6.7-7.1c-1.1-0.1-2.3-0.3-3.4-0.5c-9.8-1.4-19.6-2.9-30.6-4.5c-6.3,42-12.6,83.7-18.9,125.9
		c13.9,1.9,26.5,3.6,39.1,5.4c7.6,1.1,7.8,1,8.4-6.7c0.8-9.1,1.5-18.2,2.3-27.3c0.3-3.1-0.2-7.2,1.6-9.1
		C292.7,387.6,298.2,383.6,303.3,379.2z M130.6,237.4c-1-5.3-2-10.7-3.3-17.1c0.9-3,2.7-7.3,3.4-11.8c0.9-5.2,1.6-10.6,1.1-15.8
		c-0.4-4.3-0.1-9.9,2.9-10.6c4-0.9,3.8-3.6,4.4-6.2c-1.3-1.1-2.4-2.1-3.5-2.9c0.2-0.6,0.2-0.9,0.4-1.2c0.4-0.6,0.8-1.1,1.2-1.6
		c5.3-6.1,5.3-6.1-0.3-11.4c-0.8-0.7-1.5-2.5-1.1-3.3c1.2-2.8,2.4-6.2,4.6-7.9c6.8-5.1,7.5-11.1,4.2-18.3c-1.1-2.5-1.8-5.2-3-8.7
		c-2.4,2.1-3.6,3.1-4.8,4.3c-22.4,22-44.9,44-67.3,66c-5.7,5.6-5.7,5.6,0.8,9.7c0.7,0.4,1.3,1,0.8,0.7c0.6,2.9,0.4,5.3,1.5,6.4
		c16.8,15.9,34.4,30.7,54.1,42.9c3.7,2.3,7.4,4.6,11.4,7.1c0.4-3.9,0.8-7,1-9.5c-2.4-1.2-4.5-2.6-6.8-3.4c-5-1.7-4.5-4.3-1.5-7.6
		c-2,9.1,7.4,6.8,10.9,10.5c-0.5,1-1.3,1.9-1.4,2.7c0,3.3-3,7.2,1.5,9.8c34.5,19.7,71.2,33.7,110.1,42c1.2,0.3,3.9-1.3,4.2-2.4
		c2.9-14,5.6-28.1,8.3-42.4c-10.7-5.1-21.2-10-31.6-15.2c-1.8-0.9-3.6-2.9-4.3-4.8c-1.5-3.7-3.3-6.5-7.5-7.6
		c-1.6-0.4-3.2-2.2-4.1-3.8c-4.6-8.2-8.4-17-13.7-24.7c-6.6-9.6-9-18.6-0.9-28.3c0.2-0.2,0.3-0.6,0.4-0.9c0.1-1.6,0.9-4,0.1-4.8
		c-1-1-3.4-1.4-5-1.1c-4.3,0.8-5.3,0-4.3-4.3c0.1-0.6,0-1.3,0-2.4c-2,1.1-3.6,2.1-5.2,3c-5.6-4.7,1.9-10.2-1-14.5
		c-2.5,1.4-5.4,4.3-6.9,3.7c-6.1-2.5-12.1-2.1-18.3-1.4c-1,0.1-2.1-1.2-3.1-1.9c0.6-1,1.1-2.1,2-2.8c0.7-0.6,1.8-0.7,3.2-1.2
		c-3.9-1-3.3-8.4-9.3-5.2c-0.7,1.3-1.5,2.8-2.4,4.6c-1.6-0.9-2.9-1.6-5-2.7c-3.6,5.2-7.2,10.3-10.7,15.4c7.2,6.8,7.2,6.8,1,16.2
		c3.7,3.4,3.6,8.7-0.5,10c-5.1,1.6-5,5.8-3.7,8.7c2.1,4.9-0.6,9.7,0.8,14.5c0.2,0.7-1.2,1.8-1.5,2.9c-1.3,4.7-3.3,9.5-3.4,14.3
		c-0.1,4.1,2,8.3,2.9,12.5C132.4,235.9,131.2,236.7,130.6,237.4z M457.5,470.4c7.6-4,16.8-2.2,23.8-9.4c3.6-3.7,3.9-6.9,4.4-11
		c0.7-5.7,1.7-11.4,2.8-17c0.2-1,1.5-2.3,2.6-2.5c2.9-0.6,3.8-2,3.6-4.9c-0.2-3.6,2.8-5.4,5.5-4.8c3.1,0.6,4-0.9,5.7-2.5
		c2.2-2,4.7-4.4,7.4-4.8c5.1-0.7,5.8-5,8-8c0.3-0.4-1-2.6-2-3.1c-3.9-1.9-7.9-1.3-11.3,1.1c-9.8,6.8-17,15.7-21.6,26.7
		c-1.6,3.9-3.7,7.7-5.9,11.3c-0.6,1-2.4,1.4-3.7,2c2.3-9.7,5.1-18.7,8.8-27.2c1.9-4.4,5.5-8,8.2-12c0.8-1.1,1.5-2.4,1.8-3.7
		c1-5.4,3.2-9.6,8.9-11.5c9.1-3.1,18.2-6,26.9-9.9c5.3-2.4,11.6-4,13.5-11.4c1.5-5.7,2.6-12,7.9-16.2c1-0.8,1-2.7,1.5-4.1
		c-1.6,0-3.4-0.5-4.7,0.2c-10.6,5.1-21.2,10.4-31.7,15.8c-3.6,1.8-7.1,4.5-10.9-0.1c-0.2,3.5-0.3,6.2-0.5,10.3
		c-5.6-7.6-10.9-1.1-16.3-2c-0.4-2.5-0.9-5.1-1.3-7.7c-1.2,1.4-2,2.5-2.9,3.5c-0.9-1.2-1.9-2.3-2.7-3.6c-0.8-1.3-1-3.1-2.1-4.2
		c-2-2.2-5.3-3.6-6.4-6.1c-1.3-3-1.3-6.8-0.9-10.1c0.2-1.8,2.5-3.3,4.2-5.5c6.1,5.4,12.7,1.4,19.6-1.3c-0.3-1.3-1.3-3-0.8-4.1
		c1.6-4.1-0.6-5.8-3.7-7.1c-6-2.5-7.5-7.2-7.5-13.2c0-2.3-0.9-6.1-2.4-6.6c-5.9-2-6.3-5.9-4.6-11.3c-2.9,0-5.1,0-8,0
		c3.2-5.2-0.8-6-3.7-8c1.7,9.7,0.5,13.5-7.4,23c-4.5-4.5-9.6-7.7-14.8-2.1c-2.4-8.6-4.6-16.7-6.7-24.6c-2.8,0-5.7,0.2-8.7-0.1
		c-1.4-0.1-2.8-0.8-4-1.5c-3.9-2.5-7.7-5.2-11.6-7.7c-0.6-0.4-1.8-0.5-2.2-0.2c-4.6,4.4-9.9,3.5-15.4,2.5c-4.5-0.8-7.8,2-5.8,5.2
		c3,4.7,3.8,9.6,4.5,14.7c0,0.1,0.2,0.2,0.3,0.4c3,6.1,5.4,12.3,1.1,18.8c-2.2,3.3-1.4,5.1,1.9,7.2c4.7,3,9.6,5.9,11.5,11.9
		c3.9,12.5,3.5,21.8-10.8,31.6c-2.6,1.8-2.7,3.7-0.8,5.2c3.7,3,3.7,7.1,4.8,11c0.7,2.7,1.4,5.7,3.1,7.8c4.4,5.7-0.3,11.7,2.2,18
		c-2.5-0.9-3.8-1.3-5.3-1.8c0,1.9-0.2,3.5,0,4.9c2,12.1,3.9,24.2,6.2,36.2c2.3,11.9,6.3,15.3,18.4,17c1.1,0.1,2.3,0.5,3.2,1.1
		c6,4.2,11.9,4.4,18.6,1.4C455.1,463.4,455.3,463.8,457.5,470.4z M138.9,401.8c0.9-3.8,1.5-7.1,2.5-10.3c2-7-3.1-12.4-4.4-18.6
		c-1.2-6-4.2-11.5-6.3-17.3c-1.6-4.5-2.9-9.2-4.3-13.7c-0.5-1.6-2.1-3.3-1.8-4.6c0.6-3,1.9-5.9,3.3-8.7c5.9-11.8,12-23.6,18-35.3
		c3.9-7.6,7.8-15.2,11.7-23c-31.9-16.3-60.1-36.9-86.8-61.9c0,5.1,0,8.5,0,12c0.6,0.1,1.1,0.3,1.6,0.3c0.8-0.1,1.6-0.3,2.4-0.5
		c7.1-1.8,9.9,0.9,8.1,7.8c-0.2,0.8-0.5,1.7-0.4,2.4c1.6,9.2-1.2,17.9-2.9,26.7c-0.9,4.8-1.3,9.3,0.8,14c1.3,2.9,3.6,6.1-0.2,9.5
		c-2.5,2.3-3.8,6-6.4,8c-5.6,4.2-6.8,6.7-4.6,14c1.7-0.2,3.3-0.4,5-0.6c0.3,0.5,0.5,0.9,0.8,1.4c-3,2.9-6.1,5.8-8.6,8.2
		c1.5,1.6,3.5,2.6,3.7,4c0.5,2.7,0.2,5.5,0.2,9.2c0.7-0.5,0.3-0.1-0.1,0c-6.8,2.8-7.7,9.5-2.8,15c3.4,3.8,5.8,8.5,8.4,12.9
		c0.4,0.7-0.2,2.2-0.6,3.2c-1,2.3-1.1,3.8,1.1,6c2.2,2.1,2.7,5.9,4.2,8.7c1,1.9,2.1,4.2,3.8,5.2c8.4,4.7,16.9,9.2,25.6,13.4
		C119.6,393.4,129.5,397.6,138.9,401.8z M344.6,197.5c0.8,2.3,1.2,4.1,2,5.8c1.1,2.4,2.2,4.5-0.9,6.3c-0.6,0.4-0.9,1.5-1.1,2.4
		c-0.8,3.8-1.3,7.7-2.3,11.4c-0.7,3-4.5,4.9-5.7,3.2c-2.8-3.8-6.1-7.5-3.7-13c1.7-3.8-0.3-6.4-3.5-8.4c-1.9,3.7,0.1,8.6-5.1,10.5
		c-1.3-5.2-2.6-10-3.8-14.8c-6.2-1.2-4.7-1.2-4.4-7.1c0.3-6-2.6-12.3-4.3-18.3c-0.2-0.8-1.9-1.4-3-1.5c-0.7-0.1-2.1,0.5-2.3,1.1
		c-1.7,4.1-3.9,7.7-4.3,12.6c-0.5,5.4,0.8,7.9,5,10.3c2.2,1.2,7.2,2,2.6,6.4c-0.2,0.2-0.3,1.2,0,1.4c2.1,1.8,3.4,3.8,1.2,6.2
		c-1.7,1.9-3.9,3.5-5.6,5.5c-1.1,1.3-2.1,2.8-2.7,4.4c-0.4,1.3-0.1,2.9-0.1,4.4c-6.1-1.2-7.5-3-5.4-8.1c1.8-4.3-2.1-4.5-3.9-6.2
		c-0.1-0.1-2.5,1.1-2.5,1.8c-0.5,5.6-3.5,5.4-7.6,3.9c-2.1-0.8-4.6-0.5-6.8-1.2c-2.9-0.9-5.7-2.1-8.4-3.5c-5.4-2.7-7.9-7.5-8.4-14
		c-3.9,0.8-7.2,1.5-10.4,2.2c0.1,0.4,0.2,0.9,0.3,1.3c1.5,0,3,0,4.5,0c1.5,0,2.9,0,4.3,0c1.4,3.7-0.6,4.8-3.2,4.9
		c-4.4,0.1-5.9,2-5.1,6.2c0.2,1.1,0.3,2.5-0.2,3.4c-0.8,1.3-2.2,2.3-3.3,3.4c-0.9-1.4-2.6-2.9-2.5-4.3c0.2-6.8-2.9-10.6-9.5-10.7
		c-7.2-0.1-11.8-4.7-17-9.2c1.1-0.9,1.6-1.3,2.2-1.6c1.7-1.1,5-2.1,5-3.2c0-3.2-1.6-5.6-5.6-6.3c-2.3-0.4-4.6-2.5-6.4-4.4
		c-2.6-2.8-4.6-6.1-7.4-9.9c-2.2,4.4-3.7,8-5.8,11.3c-2,3.3-1.6,5.9,0.2,9.1c5.9,10.2,11.6,20.5,16.9,30.9c2,3.9,4.3,6.7,8.6,8
		c1.5,0.5,3,2.5,3.5,4.2c1.2,4.2,3.8,6.5,7.7,8.2c8.8,3.8,17.3,8.2,26.1,12.1c2.8,1.2,3.8,2.9,3.2,5.7c-1.5,7.4-3.1,14.9-4.6,22.3
		c-1.3,6.7-2.5,13.4-3.8,20.4c12.4,1.8,23.8,3.5,35.3,5.2c2.9,0.4,4.7,0,5.9-3.4c2.3-6.2,5.4-12.1,8.6-18c1.4-2.7,3.7-5,5.7-7.3
		c1-1.1,2.2-2.1,3.5-2.9c1.3-0.8,3.5-1.1,4-2.2c0.4-0.9-1-2.7-1.6-4.1c-0.3-0.7-0.6-1.4-1.4-3.4c4.8,2,6.2-0.2,7.4-3.5
		c0.4-1,3.1-1.1,4.7-1.6c1.9-0.6,4.6-0.5,5.5-1.7c1.9-2.8,2.8-6.2,4.7-10.5c-9.3,3.1-12.6-3.9-17.5-8.1c3.2-0.1,6.7-0.1,9.2,1.4
		c6.1,3.7,8.2,3.4,11-2.3c-0.8-2.5-1.4-4.3-1.9-6.1c2.3-0.3,4.7-0.6,7-0.8c0.3,0,0.7,1,1,1c1.5-0.2,3-0.6,4.5-1c0.7-0.2,1.4-1,2.1-1
		c4.4-0.3,5.8-4.1,7.9-7c1.9-2.6,0.4-4.5-1.4-6.5c-4-4.3-4.1-8.5-0.7-11.8C358.5,200.2,353.7,196.8,344.6,197.5z M158.8,271.6
		c-0.3,0.4-1,1.1-1.5,1.9c-9.9,19.4-19.9,38.8-29.7,58.3c-1.6,3.2-2.4,6.6,0.3,9.9c1.3,1.6,1.8,3.8,2.5,5.8
		c3.5,11,6.3,22.2,10.5,32.9c1.9,4.9,2.6,8.6,0.8,13.5c-0.9,2.6-0.1,8,1.5,8.8c8.9,4.2,18.2,7.3,27.7,10.8
		c13.4-41,26.4-81,39.4-120.7C192.9,285.8,176,278.8,158.8,271.6z M211.6,293.4c-13.1,40.2-26.2,80.3-39.3,120.5
		c21.1,7.5,42.2,12.3,63.2,15.7c6.4-42.3,12.6-83.8,18.8-125.2C240.4,300.8,226.4,297.2,211.6,293.4z M386,199.8
		c3.5-1,6.1,2.6,9.4,4.7c9.3,5.9,11.4,13,5.9,22c-1.7,2.8-2.5,4.8,0.4,7.2c2.4,1.9,2.2,4.2-0.6,5.4c-4.2,1.8-8.7,3.2-13,4.7
		c-1.2,0.4-2.6,1.9-2.7,3.6c-0.2,2,0,4.6,1.2,5.9c1.8,1.9,3.7,1.4,6.3-0.6c3.6-2.8,8.4-4.2,12.9-5.9c0.8-0.3,2.2,1.2,3.3,1.9
		c2.8,1.8,5.5,3.5,8.2,5.4c1.1,0.8,2.9,2,2.8,2.7c-0.8,3.5,1.7,3.4,3.7,3.8c3.2,0.6,6.9,0.3,9.6,1.9c5.9,3.3,11.7,2.8,18.5,1.8
		c-5.6-7.4-16.5-6.4-19.9-15.5c3.8,0.2,7.2,1,10.6,2c3.4,1,6.8,2,10.3,3c0.4-0.4,0.8-0.7,1.3-1.1c-2.1-4.3-3.8-8.7-6.4-12.7
		c-1.4-2.2-4-3.9-6.4-5.2c-4.9-2.7-10-5-15.1-7.5c0.4-0.4,0.9-0.7,1.3-1.1c0-1.4,0.1-2.7,0-4.1c-0.2-1.7-0.7-3.3-1-5
		c2-0.1,4.1-0.9,5.9-0.3c4.4,1.5,8.5,3.7,11.9,7.1c1.3,1.4,3.7,1.7,5.6,2.6c-1.3-4.2-3-7.4,0.8-10.5c0.3-0.3,0.7-1.2,0.6-1.3
		c-3.5-3.2-0.1-6,1-9.2c-5.3,0-10.2,0-15.4,0c-0.2-4.1-1.1-6.6-5.4-4.3c-0.5,0.3-1.5-0.2-2.3-0.4c-3.4-1-6.9-1.8-10.2-3
		c-2-0.7-5.4-1.9-5.5-3c-0.1-2.7,1.3-5.6,2-8.3c-0.7-0.2-2.4-0.8-4.9-1.6c1.9-1.7,3.1-2.7,4.6-4.1c-1.3-1.3-2.4-2.5-3.4-3.6
		c-2.4,2-4.2,4.1-5-0.5c-0.2-0.9-2.8-2.2-3.2-1.9c-3.1,2.5-6.6-2.9-9.5,0.5c-0.4-1.1-1.2-2.2-1-3.2c0.2-1.1,1.3-2,1.9-3.1
		c-0.3-0.4-0.6-0.8-0.9-1.2c-1.6,0.9-3.1,1.8-4.7,2.8c-0.9,0.5-1.8,1.1-2.6,1.7c-1.4-2.7-7.8-2.2-4.9-7c-5.6-3.3-12.2-13.4-15.2,1.2
		c-1.5,0.1-2.8,0.1-4.2,0.3c-1.3,0.2-2.6,0.7-3.9,1.1c-0.2-1.5-0.6-3.1-0.5-4.6c0.3-2.7-3.5-11.6-5.7-12.5c-0.7-0.3-1.6-0.1-2.3,0.2
		c-7.1,3-9.3,10.2-4.9,16.6c-0.8,1.3-1.6,2.6-2.4,4c0.6,0,1.1-0.1,1.7-0.1c0.6,2.8,1.9,5.6,1.6,8.3c-0.1,1-3.6,1.7-5.6,2.5
		c-0.3-2.7-0.1-4.4-0.6-5.8c-2.7-7.5-5.6-14.9-1-22.7c0.5-0.9,1-1.9,1.5-3c-10.1-0.6-14.5,15.2-12.3,27.5c3.2,0.9,7.5,0.2,8.4,5.5
		c-2.5,0.3-4.6,0.6-8.1,1.1c2.5,2.1,3.8,4.1,5.6,4.7c3.3,1.1,6.9,1.8,10.3,1.9c8.2,0.3,16.5,0.1,24.3,0.1c0.7-2,1.2-3.5,1.7-5
		c1.6,1,3.2,2,4.7,3.2c2.1,1.7,4.2,3.4,6.3,5.2C382.8,196.3,384.1,197.8,386,199.8z M505.5,367.7c-0.6-1.9-1.8-4.9-2.4-8
		c-0.3-1.3,0.6-3,1.3-4.4c0.2-0.4,2.1-0.6,2.5-0.2c0.8,0.9,1.5,2.3,1.4,3.4c-0.2,5.6,1.9,7.2,6.9,4.7c11.3-5.6,22.5-11.4,33.8-16.8
		c2.1-1,4.9-0.6,7.4-0.8c0.3,0.5,0.5,1,0.8,1.6c1.1-3,2.2-6,3.4-9c-0.5,0.1-1,0.2-1.5,0.4c-1.2-2-2.5-4-3.7-6.1
		c-1.7-3-2.5-7.4-7.5-6c-1.6,0.4-2.9,1.9-4.6,3c-1-1.5-1.8-2.8-2.8-4.3c-8.3,3.6-7.6,14-14.9,18.9c-0.8-4.9-0.3-8.7,2.3-12.5
		c2.3-3.5,4.2-7.2,6.4-11.2c-6,0.7-11.6,1.4-17.2,1.8c-0.9,0.1-1.9-0.8-2.8-1.3c-2-1.2-3.9-2.9-6-3.5c-7.7-2-8.8-3.1-8.9-11.1
		c-5.2-3.9-10.6-7.7-15.7-11.9c-5.3-4.4-10.3-9.1-15.4-13.7c-0.3,0.3-0.7,0.6-1,0.9c2.4,3.7,4.8,7.3,7.4,11.4c4-1.8,5.5,0,4.7,5
		c-0.4,2.7,0.3,4.6,3.4,5.6c1.5,0.5,3,2.6,3.5,4.2c1.1,4.4,1.7,8.9,2.5,13.2c9.4,3.2,11.4,7.4,8.7,18.4c-5.9,0.7-12.1,1.4-18.7,2.2
		c-0.3,1.2-1.9,3.5-2.7,6c-1.1,3.2-0.8,4.8,1.1,6.9c2.9,3.3,5.9,6.5,8.9,9.8c0.2-0.4,0.9-1.7,1.6-3c0.6,0,1.2-0.1,1.7-0.1
		c0.6,3,1.3,5.9,1.9,8.7C495.5,369.3,499.9,368.6,505.5,367.7z M496.7,429.6c5.9,0.1,7.9,4.1,8.9,9.3c0.4,2.1,1.6,4,2.5,5.9
		c3.2,6.6,8.1,7.9,13.8,3.5c3.9-3,7.5-6.3,10.8-9.9c1.1-1.2,1.7-5,0.9-5.7c-4-3.4-8.5-6.1-12.7-8.9c0.4-2.2,0.8-4.1,1.5-7.6
		c-2.9,1.7-4.5,2.7-6.4,3.9c-3.7-2.1-8-4.9-11.4,1.4c-0.3,0.6-1.8,1-2.6,0.8C496.5,421.4,495.8,424.4,496.7,429.6z M541.7,438.4
		c0.4,0.4,0.9,0.7,1.3,1.1c-1.1,1.8-2,4.8-3.4,5.1c-8,1.5-8.6,8.4-10.8,14c-0.4,1.1,1.3,4,2.8,4.7c1.3,0.6,4.3-0.2,5.1-1.4
		c1.5-2.2,1.8-5.1,2.9-7.7c1.1-2.5,1.9-5.3,3.8-7.2c4.7-4.6,9.8-8.7,14.7-13.1c1.4-1.3,2.4-2.9,3.6-4.4c-0.2-0.4-0.5-0.8-0.7-1.2
		c-1.4,0.3-2.9,0.6-4.3,1c-5.2,1.5-10.3,3.7-15.6,4.2c-5.5,0.5-5.5-0.3-6.1,5.9C537.3,439.1,539.5,438.8,541.7,438.4z M349.6,272.6
		c0.5,0,0.9,0,1.4,0c2.2-3.1,4.9-6.1,6.4-9.5c1.4-3.2,2.9-3.2,5.2-1.5c1.3,0.9,2.4,2.3,3.8,3.2c2.8,1.7,5.6,2.7,6.6-1.8
		c-2.3-1.2-6-1.9-6.7-3.7c-2.4-6.1-8.3-8.2-13-10.4c-2.6-1.2-5.3-1.5-7-4.6c-0.8,4.2-0.9,8.2-1.5,12.1c-0.5,3.7-1.5,7.4-2.3,11.2
		C346.4,265.8,349.6,266.4,349.6,272.6z M56.8,334.5c-0.1,0.8-0.4,1.4-0.3,1.9c1.3,9.8,2.6,19.6,9,27.7c0.5,0.6,1,1.6,0.8,2.2
		c-2.2,6.3,3,8.1,7,10.8C70.7,362,70.1,346.2,56.8,334.5z M309.4,169.3c3.1-3.3,3.3-8.4,9-9.9c2.4-0.6,3.4-6.2,5.2-9.6
		c-3.3-1.2-6-2.5-8.8-3.1c-1.3-0.3-3.6,0.5-4.1,1.5C306.9,154.9,308.5,162,309.4,169.3z M294.1,195.1c-2.2,3.1-4.1,5.8-6.2,8.7
		c2.4,1.4,5.1,3.2,8,4.6c1.1,0.5,3.3,0.8,3.8,0.2c0.8-1,1.2-3.2,0.7-4.2C298.7,201.2,296.4,198.4,294.1,195.1z M558.9,410.8
		c-0.4,0.2-0.9,0.3-1.3,0.5c-0.4,4.3-0.8,8.6-1.1,12.2c3,0,5.6,0,9.3,0c0.4-1,1.1-3.3,2-5.9c-2.7,0.4-4.2,0.6-5.4,0.8
		C561.1,415.5,560,413.1,558.9,410.8z M362.6,157.8c2.4-0.5,5.4-1.2,8.4-1.9c-2.7-6.2-5.8-7.4-13.9-5.1
		C358.9,153.1,360.7,155.4,362.6,157.8z M547.9,422.5c-5.7,0.9-11,1.7-16.4,2.5c3.9,4.4,9.7,1.1,14.2,3.2
		C546.6,426.1,547.2,424.3,547.9,422.5z"/>
	<path stroke="#000000" d="M222.7,183.7c-1-3.2-2.4-6.4-3-9.8c-0.2-0.9,2-3.3,2.9-3.2c3.9,0.3,7.8,1.2,11.6,2.1
		c1.7,0.4,3.3,1.4,4.9,2.1c0.3-0.5,0.6-1,0.9-1.6c-2.5-1.3-4.9-2.7-7.4-3.9c-2.6-1.1-5.5-1.5-7.8-3c-1.8-1.2-3.6-3.5-3.9-5.5
		c-0.2-1.1,2.4-2.8,4.3-4.8c-3.5-3.7-4.2-8,2.4-11.6c-0.6-0.4-1.3-0.8-1.9-1.2c-2.2,1.8-4.4,3.6-6.6,5.3c-1,0.7-2,1.9-3.1,1.9
		c-2.8,0.2-5.7,0.3-8.4-0.2c-1-0.2-2.2-2.1-2.5-3.4c-0.6-2.5,0-5.4-1-7.6c-1.6-3.4-1-5.5,1.8-7.7c3.9-3.1,7.9-6.1,11.2-9.8
		c1.8-2.1,2.2-5.6,3.4-9.1c4.8,2.4,11.3,1,13.6,7.9c0.3,1,1.5,1.8,2.4,2.5c7.4,4.9,11.1,13.5,9.3,21.9c4.4-1,7,2.2,8,7.2
		c1.6-0.9,3.2-1.7,4.8-2.6c0.9,2.2,2,4.4,2.7,6.7c0.5,1.7,0.3,3.6,0.8,5.5c0.5-3.6,1-7.1,1.5-10.7c0.6-4.4,8.8-9.4,12.7-7.3
		c1.5,0.8,3,3,3,4.5c0,1.8-1.2,4.7-2.7,5.2c-3.1,1.2-3.1,3.2-3.1,5.8c-0.1,5.5-1.6,11.2-0.5,16.4c0.8,4,4.2,8,7.4,10.8
		c3.2,2.7,3.4,4.8,1.3,8c-1.5-0.3-3-0.6-5.4-1c2.7,4.4,2.8,8.8-2,9.5c-3.4,0.5-7.5-1.7-10.8-3.6c-2-1.1-3.1-3.9-4.6-6
		c-9,6.4-18.2,5.3-27.4,2c-1.2-0.4-2.3-2.8-2.3-4.3c0.2-6.1-0.2-6.8-6.5-7.6C222.6,183.5,222.7,183.7,222.7,183.7z M276.2,198.7
		c-5.1-7.4,1.8-6.5,5.4-7.8c-2.8-3.1-5.5-5.5-7.6-8.5c-1.6-2.2-3.2-5-3.3-7.5c-0.2-6.5,0.8-13.1,0.5-19.6c-0.1-2.5-2.1-4.9-3.2-7.3
		c-0.7,0.2-1.4,0.3-2.1,0.5c-0.5,4.2-1.5,8.3-1.4,12.5c0,3.8-1.7,4.8-5.7,5.3c0-4.6,0-9,0-13.4c-0.4,0-0.7,0-1.1,0
		c-3.6,9.9-7.1,19.7-10.5,29.2c-5-0.8-10.4-0.1-13.2-2.5c-3.8-3.2-7.8-3.9-11.8-5.4c-0.7,4.9,1.1,7.4,5.3,8.6
		c3.8,1.1,4.1,4.2,3.8,7.6c-0.1,1.3,0.8,3.7,1.5,3.7c5.3,0.5,10.3,3.9,15.9,0.8c3.4-1.8,7.5-2.4,11.4-3.6
		C266.7,201.6,271.9,204,276.2,198.7z M244,140.6c-8.5-0.7-14.9,2.8-20.1,10.8c3.1,2.2,6.2,4.4,10.5,7.4c-4.5,0.5-8.1,0.8-12,1.2
		c1,5.9,6,5.8,9.6,7.4c3,1.4,6.1,2.5,8.8,4.3c1,0.6,0.8,2.9,1.2,4.4c-1.4,0.1-3,0.5-4.3,0.2c-3.1-0.8-6-2.1-10-3.5
		c5.7,5.6,12,6.6,18.7,7.9c3.1-8.6,6.1-17.1,9.3-26c-2.2-0.3-3.7-0.5-4.6-0.6c-0.6-2.8-1-5.2-1.3-6.7c-2.9,0-4.5,0-6.1,0
		C243.7,145.4,243.9,143.3,244,140.6z M243.6,135.9c-1.9-4.5-1.8-9.5-7.7-10.8c-1.2-0.3-2.7-1.8-3.2-3c-1.8-5.5-6.7-5.3-11.2-6.7
		c-0.8,11-11.7,13.5-16.1,19.8c0.9,5,1.7,9.1,2.5,13.4c1.4,0,3.2,0.1,5,0c1.5-0.1,3.8,0.1,4.4-0.7c4.6-6.5,11.2-9,18.5-10.3
		C238.2,137.1,240.6,136.5,243.6,135.9z M272,144.9c-0.3,0.4-0.6,0.8-1,1.3c1.2,2.1,2.4,4.2,3.6,6.3c0.5,0,1-0.1,1.5-0.1
		c0.3-1.7,1.5-4,0.8-5C276.1,146,273.7,145.7,272,144.9z"/>
	<path stroke="#000000" d="M325.5,117.6c1.8-2.8,3.7-5.6,5.6-8.4c-0.1-1.9-0.3-4.6-0.5-7.3c2.2,0.1,4.3,0.3,7.5,0.4
		c-0.8-0.9-1.5-2-2.5-2.8c-1.7-1.3-3.5-2.5-5.6-3.9c-2,0.7-4.9,2.2-7.9,2.7c-1.1,0.2-2.9-2-3.8-3.5c-2-3.3-5.1-7,1.3-9.8
		c-6.5-0.9-8.7-5.5-6.4-11.6c1.9-5.1,3.3-10.3,4.9-15.4c5.7,0.7,5.7,5.3,7.5,8.6c1.7,3.2,4.2,6.1,5.5,8c2.8-1.4,4.6-2.7,6.6-3.1
		c4-0.9,8-1.5,9.6-6.3c-4.5,4.7-10,5.6-15.6,3.2c-2.3-1-4-3.5-5.7-5.6c-4.5-5.7-3.3-9.9,3.4-13c2.8-1.3,3.7-6.1,8.2-4.6
		c0.2,0.1,0.8-1,1-1.5c2.9-7.5,10-9.4,16.4-11c4.4-1.1,9.7,0.5,14.5,1.4c4.7,0.9,5.5,4.5,3.2,7.8c-2.4,3.4,0.3,6.6-0.8,9.8
		c-1.4,4.4-2.5,8.9-3.8,13.3c-0.2,0.6-0.7,1.4-0.5,1.9c2.8,7.8-4.3,9.2-8,12.8c-1,1-2.2,2-2.5,3.3c-0.1,0.5,1.6,1.8,2.7,2.3
		c3.1,1.6,4.6,8.4,1.6,10.4c-2.9,1.9-3.8,3.9-3.8,7.1c0,1.4-1.5,2.8-2.4,4.4c1.1,0.7,2,1.4,2.9,1.9c3.4,1.8,3.1,4.4,1.3,7.1
		c-2.6,3.8-6,4.4-10.3,2.3c-0.9-0.4-2.5-0.5-3.2,0c-5.3,4.3-10.9,2.2-16.5,1c-0.6-0.1-1.3-0.1-2-0.1
		C326.8,118.8,326.1,118.2,325.5,117.6z M335.4,109.9c-2.8,2-5.3,3.8-8.9,6.4c6.7,2.4,12,4.7,17.6,1.1c2.1-1.3,4-2.9,6.5-0.3
		c3.4,3.6,5.5-0.4,7.1-2.2c1.8-2,0.5-3.8-2.1-4.7c-1.5-0.6-2.8-2-3.6-2.7c1.4-2.5,3.3-4.4,3.3-6.3c0-2.8,0.5-4.4,3.1-5.8
		c3.5-1.9,3-6.8-0.5-8.6c-3.3-1.6-4.1-5.6-1.5-7.7c3.1-2.5,6.4-4.7,9.6-7c-0.5-0.1-0.9-0.3-1.4-0.4c1.8-7.3,3.5-14.6,5.3-21.9
		c-1.5-0.1-2.8-0.1-5-0.3c1.3-1.7,2.2-2.6,2.7-3.7c1.3-2.7,2.5-5.4,3.8-8.1c-2.8-1.1-5.5-2.9-8.4-3.1c-4.1-0.4-7.9,0.7-12,2.1
		c-6.4,2.2-10.3,5-11,11.9c-2.1-0.5-3.9-0.9-4.3-1c-4.3,3.2-7.6,5.7-11,8.3c4.1,3,2.4,10.2,9.4,11.6c6.4,1.2,9.6-2.9,14.7-7.2
		c0.3,3.1,1.2,5.9,0.5,6.4c-4.2,3.2-8.9,5.8-14,9c2.5,3.5,5.8,8,9.6,13.3c-3.2,0.7-5.4,0.6-6.9,1.6c-1.8,1.1-3,3.2-4.4,4.8
		c1.2,0.7,2.6,1.4,3.6,2.3c1,0.9,2.3,2,2.5,3.1c0.2,1.3-0.2,3.1-1.1,4c-0.5,0.5-2.5-0.5-3.8-0.8c-0.9-0.2-1.7-0.5-2.6-0.8
		c-0.3,0.3-0.6,0.6-0.9,0.9C332.4,105.9,333.7,107.7,335.4,109.9z M315.9,81.7c2.2,0.5,3.7,0.8,5.3,1.2c-0.4,1.3-0.5,3.1-1.4,3.8
		c-4.4,3.4-0.7,5.9,0.9,8.3c2.3,3.3,4.7,1.4,6.6-0.6c2.9-3.3,5.6-6.8,7.8-9.5c-5.2-8.1-10.2-16-15.5-24.2c-1.2,3.6-2.3,6.9-3.4,10.1
		c0,0,0.1,0.1,0.1,0.1c-0.7,2.1-1.4,4.2-2.2,6.6C314.6,78.7,315.3,80.4,315.9,81.7z"/>
	<path stroke="#000000" d="M560.3,346.7c0.6-0.8,1-1.8,1.8-2.3c1.1-0.8,2.6-1.8,3.7-1.6c0.8,0.2,1.7,2.2,1.7,3.4
		c0.2,4.1,0,8.1,0,12.2c0,1,0.1,2,0.1,2.5c2.7-0.5,5.3-1.1,7.9-1.3c0.4,0,0.9,2.1,1.3,3.2c4.1,0.8,7.1-0.9,9.7-4.4
		c2.2-3,6.4-1.9,7.8,1.6c0.5,1.2,0.8,2.5,1.4,4.2c3-1.6,4.8-0.5,5.1,2.9c3.8-0.7,10,2.5,11.3,6c0.9,2.4,1.9,5.1,1.9,7.6
		c0,2.9-1.3,5.5-5,5.6c-1.9,0.1-3.9,0.4-6.5,0.7c-0.9-2.1-2-4.6-3.1-7.2c-0.3,0-0.6,0.1-0.9,0.1c-0.1,1.9-0.1,3.8-0.4,5.6
		c-0.4,2.1-0.6,4.6-1.8,6c-1.1,1.2-3.6,1.2-5.6,1.7c-0.4-1.7-0.8-3.4-1.3-5.7c-2.3-1.4-4.8-0.9-7,2.3c-0.7,1.1-2.5,1.5-3.8,2.1
		c-4.9,2.3-9.9,4.5-15.2,6.9c-3-1.1-3.6-3.3-2.3-6.8c0.6-1.7-0.2-3.9-0.3-5.8c-0.2-3.4-0.2-6.8-0.4-10.2c-0.6-7.5-1.4-15-1.7-22.5
		c-0.1-2.3,1.2-4.7,1.8-7C560.5,346.6,560.3,346.7,560.3,346.7z M569.1,369.4c-6.8-8-0.5-16.8-4.5-24.1c-2.5,3-3.1,3-3.4,12.5
		c-0.3,8.8-0.1,17.9,1.6,26.5c0.7,3.6,0.9,6.3-0.3,9.5c-0.3,0.8,0.2,1.8,0.5,3.6c8.2-4.4,15.9-8.6,24.3-13.1
		c5.7,3.2,5.7,3.2,4.5,8.1c6.9-4,1.6-12.8,8.1-16.3c1.3,2.9,2.4,5.5,3.6,8.2c1.2-1.1,2.3-2,3.7-3.2c0.7,1.7,1.2,3,1.7,4.4
		c0.9-0.5,1.9-1,2.8-1.4c-0.3-3.6-0.7-7.3-1.1-11.7c-1.9,1.5-2.7,2.2-3.8,3.1c-0.7-2.7-1.4-4.9-2-7.1c-0.4,0-0.8,0-1.2,0
		c-0.5,2.3-1,4.6-1.5,6.9c-0.5,0.1-1,0.1-1.5,0.2c-0.6-2.9-1.3-5.8-1.9-8.9c-3.4,2.6-5.1,1.7-5.3-2.3c-0.1-1.2,0-2.5-0.6-3.4
		c-1.2-2.1-3.5-3.5-5-0.9c-3.1,5.2-7.8,5.3-13,5.4c-0.6-1.3-1.3-2.6-2.4-5.1c-1,2-1.6,3-2,4.1C570,365.7,569.7,367.1,569.1,369.4z"
		/>
	<path stroke="#000000" d="M258.3,121.9c-5.5-1.8-9.7-3.1-13.8-4.5c-0.1-0.6-0.1-1.2-0.2-1.8c3.8-3.4,7.3-7.1,11.4-10.1
		c1.9-1.4,3.8-1.5,6.1,1.4c2.4,3.2,4,5.9,3.9,9.8c0,1.4,1,2.7,1.6,4.1c0.7-0.5,1.5-1.1,2.2-1.6c0-2.5-0.6-5.2,0.2-7.4
		c0.8-2.2,2.9-4,4.4-6c0.8,1.1,2.3,2.2,2.3,3.3c0,2.6-0.7,5.2-0.9,6.9c2.6,1.1,5.6,1.4,6.2,2.8c0.7,1.6-0.2,4.3-1,6.3
		c-1.7,4.8-4.5,6.7-9.9,4.2c-2.3-1.1-5.7,0.7-8.7,0.7c-3,0.1-6.1,0-9-0.7c-1.1-0.3-2-2.5-2.2-3.9c-0.1-0.6,2.1-1.5,3.3-2.1
		C254.9,122.8,255.8,122.6,258.3,121.9z M252.4,125.6c3,3.6,10.3,4,12.3,1c1-1.5,2-4,1.5-5.5c-2-5.1-4.6-9.9-7.7-16.3
		c-4.1,4.3-7.4,7.7-11.8,12.3c3.8,0.2,6.6,0.4,10.1,0.6c1.4,1.3,3.6,3.2,6.5,5.8C259.1,124.3,255.9,124.9,252.4,125.6z M266.1,125.1
		c0.3,0.5,0.6,1.1,0.9,1.6c3.6-2.1,7.1,5.1,10.5-0.1c1.4-2.1,4.7-4.4,1.6-7.9c-3.6,3.2-4.9,1.2-5.2-2.3c-0.2-2.5,0-5.1,0-7.6
		c-1.3,1.4-1.6,3-1.9,4.7c-0.5,2.7-0.8,5.5-1.8,7.9C269.4,122.8,267.5,123.8,266.1,125.1z"/>
	<path stroke="#000000" d="M325.5,117.6c0.6,0.6,1.3,1.3,1.9,1.9c0,1.8-0.5,4,0.2,5.5c1.8,3.8,8.4,5.2,12,2.7
		c4.8-3.3,9.7-3.8,14.9-1.2c4.5,2.2,3.5,6.7,2.7,10c-0.4,2-3.5,4.3-5.8,4.8c-5.3,1.1-10.9,1.7-16.3,1.4c-4.9-0.2-10.4-0.6-14.3-3.1
		c-2.3-1.5-3-7.2-2.7-10.9c0.3-4,0.5-6.3-4.1-7.8c-2.5-0.8-4.4-3.8-6.3-6.1c-0.7-0.8-1.1-3-0.6-3.5c0.9-0.9,2.8-1.7,3.9-1.3
		c2.3,0.7,4.4,2.1,6.6,3.3C320.2,114.7,322.9,116.1,325.5,117.6z M319.5,118.4c0,4.7-0.4,8.6,0.1,12.3c0.3,2.6,1.1,6.6,2.9,7.3
		c4.1,1.7,8.8,2.4,13.3,2.5c4.2,0.1,8.3-1.3,12.5-1.9c2.2-0.4,6,0,6.4-1.1c1-2.3,1.1-5.7,0.1-8.1c-0.6-1.5-3.9-2.8-5.9-2.6
		c-3,0.2-6.1,1.3-8.8,2.8c-6.1,3.4-14.2-0.4-15.5-7.3C324.1,119.5,322.6,117,319.5,118.4z M309.8,111.2c-0.4,0.6-0.7,1.2-1.1,1.8
		c2,2.2,3.9,4.5,6.7,7.7c0.7-2.5,1.8-4.8,1.4-5.1C314.7,113.8,312.1,112.6,309.8,111.2z"/>
	<path stroke="#000000" d="M299.1,157c4.8,2.9,7.7,6.8,4.3,11.9c-2.5,3.7-6.1,6.6-9.7,10.4c-1.6-2-2.7-3.3-3.7-4.7
		c-2.3-3.6-4.5-7.2-6.8-10.8c-0.2-0.3-0.6-0.5-0.6-0.8c-0.1-2.4,0-4.9-0.1-7.3c2.1,0.3,4.1,0.6,7,1.1c-0.9-2-1.8-4.1-2.9-6.4
		c3.6-4.5,11.2-5.9,15.5-2.3c0.8,0.7,0.8,3,0.3,4.3C302,153.8,300.5,155.1,299.1,157z M283.5,157.5c0.1,1-0.1,2.7,0.6,3.9
		c2.9,4.7,6.1,9.2,9.2,13.8c1.6-0.7,3.4-1.6,5.3-2.5c3.9-1.8,5.7-9.5,2.3-11.7c-4.5-2.9-3.8-5.5-0.6-8.7c0.6-0.6,0.9-1.6,1.5-2.8
		c-3.4-0.7-6.4-1.4-9.5-2c-1,1.3-1.9,2.5-2.8,3.8c0.5,0.1,1,0.2,1.5,0.3c-0.3,2.5-0.6,5-0.9,7.5
		C288.2,158.6,286.3,158.2,283.5,157.5z"/>
	<path stroke="#000000" d="M233.7,98.7c7.1-3.4,12.3-6.3,17.9-8.2c2.6-0.9,5.9,0.1,8.7,0.8c0.9,0.2,2.1,2.9,1.8,3.4
		c-2.1,3.1-4.1,7.1-7.2,8.3c-4,1.6-8.9,1.2-13.3,1.9C239.6,105.3,237,101.5,233.7,98.7z M260.2,94c-9-5-14.6,2.6-22,4.6
		c1.9,2.1,3.2,3.6,4.4,5c3.9-0.1,6.4-7.9,11-0.5C256,99.7,258.1,96.9,260.2,94z"/>
	<path stroke="#000000" d="M293.4,127.8c-6.5-1-6.5-1-3.8-6.2c0.7-1.4,0.3-4.1,1.3-4.6c3.5-1.8,6.9-4,11.4-2.8
		c4.3,1.1,3.2,4.2,3,6.7c-0.2,3.3-1.1,6.5-1.5,9.8c-0.3,2.9-1.8,3.7-4.6,3.9C294.1,135,292.7,132.6,293.4,127.8z M301.7,132.3
		c0.7-4.8,1.4-9.2,1.7-13.6c0.1-0.9-1.4-2.5-2.4-2.8c-1-0.3-2.4,0.7-3.5,1.3c-1.5,0.8-2.8,1.8-5.2,3.3c-0.3,0.6-1.1,2.5-1.9,4.6
		c2.5,0.3,4.7,0.5,6.7,0.7c-0.7,2.3-1.2,4.2-1.9,6.5C297.5,132.3,299.3,132.3,301.7,132.3z"/>
	<path stroke="#000000" d="M289.5,81.2c4.3-3.3,5.2-2.7,8.4,1c3.6,4.1,6,8.5,6.1,13.9c0,1.7-1.2,3.4-1.8,5c-1.4-0.8-2.9-1.6-4.2-2.6
		c-2.1-1.6-4.3-3.2-6.2-5.1c-1-1-1.4-2.5-2.1-3.7C295,86.9,290.8,84.2,289.5,81.2z M292.6,81c0.5,3.6,4.3,7.5-0.2,9.6
		c3.2,2.8,6.3,5.6,9.5,8.4C302.4,90.5,299,83.8,292.6,81z"/>
	<path stroke="#000000" d="M47.2,307.4c-0.3-2.1-1.2-4.4-0.9-6.4c1-6,2.3-11.9,3.9-17.8c0.8-3.1,2.8-3.4,5-0.9
		c2.9,3.3,4.5,6.1,0.4,10.1c-2.1,2-2.9,5.5-4.1,8.3c-0.9,2.2-1.6,4.5-2.3,6.8C48.6,307.5,47.9,307.4,47.2,307.4z M47.7,301.3
		c0.3,0,0.5,0,0.8,0c2.6-4.7,5.1-9.3,7.8-14.3c-0.9-1.2-2.1-2.7-4.4-5.6C50.3,288.9,49,295.1,47.7,301.3z"/>
	<path stroke="#000000" d="M539.5,390.8c-9,6.1-16.9,3.7-26.2,0.9c1.9-1.7,3.2-3.9,4.6-3.9C524.9,387.5,532.3,385.8,539.5,390.8z
		 M535.9,390.1c-6.7,0-12.1,0-17.5,0C523.7,392.7,529.1,395,535.9,390.1z"/>
	<path stroke="#000000" d="M380.4,217c0.5-7.9,2.5-10.7,6.2-10.4c3.1,0.2,5.9,4.7,5.7,9.2c-0.1,2.9-4.3,6.7-7.4,5.6
		C382.8,220.6,381.3,217.9,380.4,217z M380.9,215.5c2.1,1.8,4,4.1,4.6,3.8c1.9-0.9,4.7-2.9,4.6-4.3c-0.2-2.3-2.4-4.4-3.7-6.6
		C384.8,210.5,383.1,212.6,380.9,215.5z"/>
	<path stroke="#000000" d="M360.5,285.8c-1.8-2-3.8-3.3-3.7-4.2c0.4-2.3,1.8-4.4,2.8-6.6c0.1-0.2,0.6-0.3,0.9-0.4
		c2.4-0.3,4.9-0.6,7.3-0.9c0.1,1.6,0.9,3.7,0.1,4.6C366,280.9,363.3,283,360.5,285.8z M366.9,276c-0.3-0.3-0.7-0.6-1-0.9
		c-1.4,0.4-3,0.5-4.1,1.4c-1.3,1-2.2,2.6-3.1,4.1c-0.1,0.3,1,1.8,1.2,1.7c1.5-0.5,3.1-1,4.2-2C365.3,279.1,366,277.4,366.9,276z"/>
	<path stroke="#000000" d="M318.2,137.7c-2.6,1.4-4.5,3-5.1,2.6c-2.7-1.8-5.6-3.8-7.1-6.5c-0.5-0.9,3.3-4,5.1-6.1
		C313.2,130.6,315.3,133.6,318.2,137.7z M312,129.5c-0.7-0.1-1.3-0.3-2-0.4c-0.7,1.8-2.4,4-1.9,5.2c0.9,1.9,3.3,3.1,5,4.5
		c0.5-0.4,0.9-0.9,1.4-1.3C313.7,134.9,312.9,132.2,312,129.5z"/>
	<path stroke="#000000" d="M309.2,101.4c-0.3-0.4-1.5-1.3-2.1-2.5c-0.6-1.3-1-2.8-1-4.3c0-2,0.5-3.9,0.7-5.9
		c1.8,1.2,3.8,2.1,5.2,3.6c1,1.1,1.3,3,1.9,4.5C315.1,100.2,313.8,101.6,309.2,101.4z M313.3,99.3c-1.8-3.3-3.1-5.8-4.4-8.2
		C308.1,98.1,308.4,98.7,313.3,99.3z"/>
	<path stroke="#000000" d="M276.7,89.6c3.5,2.6,1.6,5.7-0.2,7.5c-1.3,1.3-5,1.8-6.5,0.9c-1.5-1-1.8-4.1-2.2-6.4
		c-0.1-0.5,1.7-1.9,2.7-2c2.1-0.3,4.2,0,6.4,0.1L276.7,89.6z M276.7,93.7c-0.2-0.6-0.5-1.1-0.7-1.7c-2-0.2-4-0.4-6.4-0.6
		c0.4,2,0.6,3.4,1.1,6.4C273.2,96.1,274.9,94.9,276.7,93.7z"/>
	<path stroke="#000000" d="M276.9,89.7c-2.3-1.3-4.7-2.6-7-4c0-0.6,0.1-1.2,0.1-1.8c2.8-0.3,5.6-1.1,8.4-0.8
		c0.8,0.1,1.8,2.9,1.9,4.5c0,0.6-2.3,1.3-3.5,2C276.7,89.6,276.9,89.7,276.9,89.7z"/>
	<path stroke="#000000" d="M375,282.5c2.1-2.4,3.5-5.2,5-5.3c2.8-0.2,5.2,2.1,4.3,5.3c-0.7,2.3-2.7,4.3-4.2,6.4
		C378.6,286.9,377.1,285.1,375,282.5z M378.6,279.2c0.3,2.4,0.5,4.9,0.8,7.3c0.5-0.1,1.1-0.1,1.6-0.2
		C382.6,283.6,384,281,378.6,279.2z"/>
	<path fill="#FFFFFF" stroke="#000000" d="M457.5,470.4c-2.2-6.6-2.4-7-8.5-4.3c-6.7,3-12.7,2.8-18.6-1.4c-0.9-0.6-2.1-1-3.2-1.1
		c-12.1-1.6-16.1-5-18.4-17c-2.3-12-4.2-24.1-6.2-36.2c-0.2-1.4,0-3,0-4.9c1.5,0.5,2.8,0.9,5.3,1.8c-2.6-6.3,2.2-12.2-2.2-18
		c-1.6-2.1-2.3-5.1-3.1-7.8c-1.1-3.9-1.1-8.1-4.8-11c-1.8-1.4-1.7-3.4,0.8-5.2c14.3-9.9,14.7-19.1,10.8-31.6
		c-1.8-5.9-6.7-8.9-11.5-11.9c-3.2-2-4.1-3.8-1.9-7.2c4.3-6.5,1.9-12.7-1.1-18.8c-0.1-0.1-0.3-0.3-0.3-0.4c-0.6-5.2-1.5-10-4.5-14.7
		c-2-3.2,1.3-6,5.8-5.2c5.5,1,10.8,1.9,15.4-2.5c0.4-0.3,1.6-0.2,2.2,0.2c3.9,2.5,7.7,5.2,11.6,7.7c1.2,0.7,2.6,1.4,4,1.5
		c2.9,0.2,5.9,0.1,8.7,0.1c2.2,7.9,4.4,16,6.7,24.6c5.2-5.6,10.3-2.4,14.8,2.1c7.9-9.4,9.1-13.3,7.4-23c2.9,2,6.9,2.9,3.7,8
		c2.9,0,5.1,0,8,0c-1.7,5.4-1.2,9.3,4.6,11.3c1.4,0.5,2.3,4.3,2.4,6.6c0,6,1.6,10.8,7.5,13.2c3.1,1.3,5.4,3,3.7,7.1
		c-0.4,1.1,0.5,2.8,0.8,4.1c-6.9,2.7-13.4,6.7-19.6,1.3c-1.7,2.2-4,3.7-4.2,5.5c-0.4,3.3-0.4,7.1,0.9,10.1c1.1,2.5,4.4,3.9,6.4,6.1
		c1,1.1,1.3,2.9,2.1,4.2c0.8,1.3,1.8,2.4,2.7,3.6c0.9-1,1.7-2.1,2.9-3.5c0.4,2.6,0.9,5.2,1.3,7.7c5.3,0.9,10.7-5.6,16.3,2
		c0.2-4.1,0.4-6.8,0.5-10.3c3.8,4.7,7.3,2,10.9,0.1c10.5-5.3,21.1-10.6,31.7-15.8c1.3-0.6,3.1-0.1,4.7-0.2c-0.5,1.4-0.5,3.4-1.5,4.1
		c-5.3,4.1-6.4,10.4-7.9,16.2c-1.9,7.4-8.1,9-13.5,11.4c-8.7,3.9-17.9,6.8-26.9,9.9c-5.6,1.9-7.8,6.1-8.9,11.5
		c-0.3,1.3-1,2.6-1.8,3.7c-2.7,4-6.3,7.7-8.2,12c-3.7,8.6-6.5,17.5-8.8,27.2c1.3-0.7,3-1,3.7-2c2.2-3.6,4.3-7.4,5.9-11.3
		c4.6-11,11.8-19.9,21.6-26.7c3.4-2.4,7.4-3,11.3-1.1c1,0.5,2.3,2.7,2,3.1c-2.2,3-2.9,7.3-8,8c-2.6,0.4-5.2,2.8-7.4,4.8
		c-1.7,1.6-2.6,3.1-5.7,2.5c-2.6-0.6-5.7,1.2-5.5,4.8c0.2,2.9-0.8,4.3-3.6,4.9c-1,0.2-2.4,1.5-2.6,2.5c-1.1,5.6-2.1,11.3-2.8,17
		c-0.5,4.1-0.9,7.3-4.4,11C474.3,468.2,465,466.4,457.5,470.4z"/>
	<path fill="#FFFFFF" stroke="#000000" d="M130.6,237.4c0.6-0.7,1.8-1.5,1.7-2c-0.9-4.2-3-8.3-2.9-12.5c0.1-4.8,2.1-9.6,3.4-14.3
		c0.3-1,1.7-2.1,1.5-2.9c-1.4-4.8,1.3-9.5-0.8-14.5c-1.3-3-1.4-7.2,3.7-8.7c4.1-1.3,4.2-6.6,0.5-10c6.1-9.3,6.1-9.3-1-16.2
		c3.5-5.1,7.1-10.2,10.7-15.4c2.1,1.2,3.4,1.8,5,2.7c0.9-1.8,1.7-3.3,2.4-4.6c6-3.2,5.3,4.2,9.3,5.2c-1.4,0.5-2.5,0.6-3.2,1.2
		c-0.8,0.7-1.3,1.9-2,2.8c1,0.7,2.1,2,3.1,1.9c6.2-0.6,12.2-1,18.3,1.4c1.5,0.6,4.4-2.3,6.9-3.7c2.9,4.3-4.6,9.8,1,14.5
		c1.6-0.9,3.2-1.9,5.2-3c0,1.1,0.1,1.8,0,2.4c-1,4.4,0,5.2,4.3,4.3c1.6-0.3,4,0.1,5,1.1c0.8,0.8,0,3.1-0.1,4.8
		c0,0.3-0.2,0.7-0.4,0.9c-8,9.7-5.7,18.7,0.9,28.3c5.3,7.7,9.1,16.5,13.7,24.7c0.9,1.6,2.5,3.4,4.1,3.8c4.2,1.1,6,3.9,7.5,7.6
		c0.7,1.9,2.5,3.9,4.3,4.8c10.3,5.2,20.8,10,31.6,15.2c-2.7,14.3-5.3,28.3-8.3,42.4c-0.2,1.1-3,2.7-4.2,2.4
		c-38.9-8.3-75.6-22.3-110.1-42c-4.5-2.5-1.5-6.5-1.5-9.8c0-0.9,0.8-1.7,1.4-2.7c-3.5-3.8-12.9-1.4-10.9-10.5L130.6,237.4z"/>
	<path fill="#FFFFFF" stroke="#000000" d="M303.2,379.4c9.4-10.2,18.9-20.4,29.4-31.8c2.1,2.6,4,5.2,6.1,7.4c1.3,1.4,3,2.5,4.7,3.3
		c4,1.9,8.1,3.7,12.2,5.3c1.5,0.6,3.1,0.8,4.7,0.9c5.1,0.3,10.2,0.5,15.8,0.8c0.6,7.5,1.1,14.6,1.7,21.7c0.1,1.2,0.6,2.6,1.4,3.5
		c3.2,3.3,6.5,6.6,10.1,9.5c3.9,3.1,5.6,8.5,11.2,9.9c1.2,0.3,1.5,4.4,1.9,6.7c1.8,11.3,3.6,22.5,5.3,33.8c1,6.6,9.2,13.7,15.6,14.2
		c2.7,0.2,5.6,0.9,8,2.2c5.3,2.8,10.3,4.1,16,1c2-1.1,4.6-1.3,7-1.9c1.6,3,1.8,5.1-1.4,6.4c-0.7,0.3-1.4,0.9-2,1.5
		c-4.8,5.1-9.7,10.2-14.6,15.4c-7.7-1.2-20.2,5.6-20.9,11.7c2,0.5,4,1,6.1,1.5c-10.3,6.9-22.6,8.5-30.8,18.4
		c-0.6-0.6-1.2-1.3-1.9-1.9c1.5-3.2,2.8-6.5,4.7-9.5c2.5-3.9,5.2-7,4.2-12.5c-0.8-4.1,1.2-8.7,1.8-12.7c2.9,1.2,6.7,2.7,11,4.5
		c0.8-4,2.3-6.8-0.9-10.7c-6.4-7.7-14.7-8.5-23.5-9c-3.5-0.2-7.1-0.3-10.3-1.5c-2.4-0.9-4.7-3.1-5.9-5.3c-1.7-3.2-2.3-7.1-3.7-10.5
		c-0.4-0.9-2.5-2-3.4-1.8c-4.6,1.5-6.5-1-7.6-4.8c-0.9-3.3-2.7-5.2-6.4-4.6c-0.2,0-0.4,0.1-0.5,0c-10.2-4.7-15.2,1.9-20.1,9.1
		c-0.5,0.7-2.2,0.7-3.4,0.6c-3.8,0-7-2.2-11.3-1.3c-2.7,0.6-6.3-2.9-9.6-4.3c-1.8-0.7-3.9-1.2-5.9-1.2c-4.1,0-7.6-2.7-8.9-6.6
		c-0.8-2.5-3.3-4.7-3.5-7.1c-0.3-4.6,0.6-9.2,1.1-13.9c0.5-5.6,1.4-11.2,1.5-16.8c0.1-4,1.4-6.8,4.4-9.4c3.7-3.3,7.1-6.9,10.7-10.4
		C303.3,379.2,303.2,379.4,303.2,379.4z"/>
	<path fill="#FFFFFF" stroke="#000000" d="M138.9,401.8c-9.4-4.2-19.3-8.4-28.9-13c-8.7-4.2-17.2-8.7-25.6-13.4
		c-1.7-1-2.8-3.3-3.8-5.2c-1.5-2.9-2.1-6.6-4.2-8.7c-2.2-2.2-2.1-3.7-1.1-6c0.4-1,1-2.5,0.6-3.2c-2.6-4.4-5-9.2-8.4-12.9
		c-4.9-5.4-4-12.1,2.8-15c0.4-0.2,0.8-0.5,0.1,0c0-3.6,0.4-6.5-0.2-9.2c-0.3-1.4-2.2-2.5-3.7-4c2.5-2.4,5.6-5.3,8.6-8.2
		c-0.3-0.5-0.5-0.9-0.8-1.4c-1.7,0.2-3.3,0.4-5,0.6c-2.1-7.3-1-9.7,4.6-14c2.6-2,3.9-5.8,6.4-8c3.8-3.4,1.4-6.6,0.2-9.5
		c-2-4.7-1.7-9.2-0.8-14c1.7-8.8,4.5-17.5,2.9-26.7c-0.1-0.8,0.2-1.6,0.4-2.4c1.8-6.8-1-9.5-8.1-7.8c-0.8,0.2-1.6,0.4-2.4,0.5
		c-0.5,0-1-0.2-1.6-0.3c0-3.4,0-6.8,0-12c26.7,25,54.9,45.5,86.8,61.9c-4,7.8-7.9,15.4-11.7,23c-6,11.8-12.1,23.5-18,35.3
		c-1.4,2.8-2.6,5.7-3.3,8.7c-0.3,1.4,1.3,3,1.8,4.6c1.5,4.6,2.8,9.2,4.3,13.7c2,5.8,5.1,11.4,6.3,17.3c1.2,6.3,6.4,11.6,4.4,18.6
		C140.4,394.7,139.8,397.9,138.9,401.8z"/>
	<path fill="#FFFFFF" stroke="#000000" d="M344.6,197.5c9-0.7,13.8,2.7,15.8,10.1c-3.4,3.3-3.3,7.5,0.7,11.8c1.8,2,3.3,3.8,1.4,6.5
		c-2.1,2.9-3.5,6.6-7.9,7c-0.7,0.1-1.4,0.8-2.1,1c-1.5,0.4-3,0.8-4.5,1c-0.3,0-0.7-1-1-1c-2.3,0.2-4.7,0.5-7,0.8
		c0.6,1.8,1.2,3.6,1.9,6.1c-2.8,5.7-4.9,6-11,2.3c-2.5-1.5-6-1.4-9.2-1.4c5,4.2,8.2,11.2,17.5,8.1c-1.9,4.4-2.8,7.8-4.7,10.5
		c-0.8,1.2-3.6,1.2-5.5,1.7c-1.6,0.5-4.4,0.6-4.7,1.6c-1.2,3.3-2.6,5.5-7.4,3.5c0.8,2,1.1,2.7,1.4,3.4c0.6,1.4,2,3.2,1.6,4.1
		c-0.5,1.1-2.7,1.3-4,2.2c-1.3,0.8-2.5,1.7-3.5,2.9c-2,2.3-4.3,4.6-5.7,7.3c-3.1,5.9-6.3,11.8-8.6,18c-1.3,3.4-3,3.8-5.9,3.4
		c-11.4-1.7-22.9-3.3-35.3-5.2c1.3-7,2.5-13.7,3.8-20.4c1.5-7.5,3-14.9,4.6-22.3c0.6-2.9-0.5-4.5-3.2-5.7
		c-8.7-3.9-17.3-8.3-26.1-12.1c-3.9-1.7-6.5-4-7.7-8.2c-0.5-1.6-2-3.7-3.5-4.2c-4.3-1.4-6.6-4.1-8.6-8
		c-5.4-10.4-11.1-20.7-16.9-30.9c-1.9-3.2-2.3-5.9-0.2-9.1c2.1-3.3,3.6-7,5.8-11.3c2.8,3.7,4.8,7,7.4,9.9c1.7,1.9,4,4.1,6.4,4.4
		c4,0.7,5.6,3.1,5.6,6.3c0,1.1-3.2,2.1-5,3.2c-0.5,0.3-1,0.8-2.2,1.6c5.2,4.5,9.7,9.1,17,9.2c6.6,0.1,9.7,3.9,9.5,10.7
		c0,1.4,1.6,2.9,2.5,4.3c1.1-1.1,2.5-2.1,3.3-3.4c0.5-0.9,0.5-2.3,0.2-3.4c-0.8-4.2,0.8-6.2,5.1-6.2c2.6,0,4.5-1.1,3.2-4.9
		c-1.4,0-2.8,0-4.3,0c-1.5,0-3,0-4.5,0c-0.1-0.4-0.2-0.9-0.3-1.3c3.3-0.7,6.5-1.4,10.4-2.2c0.4,6.5,3,11.3,8.4,14
		c2.7,1.4,5.5,2.6,8.4,3.5c2.2,0.7,4.7,0.4,6.8,1.2c4.1,1.5,7.1,1.7,7.6-3.9c0.1-0.7,2.4-2,2.5-1.8c1.7,1.7,5.7,1.8,3.9,6.2
		c-2.1,5.1-0.7,6.9,5.4,8.1c0-1.5-0.3-3.1,0.1-4.4c0.5-1.6,1.5-3.1,2.7-4.4c1.7-1.9,3.8-3.5,5.6-5.5c2.2-2.5,1-4.4-1.2-6.2
		c-0.2-0.2-0.2-1.2,0-1.4c4.6-4.3-0.4-5.2-2.6-6.4c-4.3-2.4-5.5-4.9-5-10.3c0.4-4.9,2.6-8.5,4.3-12.6c0.3-0.6,1.6-1.2,2.3-1.1
		c1.1,0.2,2.8,0.8,3,1.5c1.7,6.1,4.7,12.3,4.3,18.3c-0.3,5.9-1.8,5.8,4.4,7.1c1.2,4.7,2.4,9.5,3.8,14.8c5.3-1.9,3.3-6.8,5.1-10.5
		c3.3,2.1,5.2,4.6,3.5,8.4c-2.4,5.5,0.9,9.2,3.7,13c1.3,1.7,5-0.2,5.7-3.2c0.9-3.8,1.5-7.6,2.3-11.4c0.2-0.9,0.5-2.1,1.1-2.4
		c3.1-1.8,2-3.9,0.9-6.3C345.8,201.6,345.4,199.8,344.6,197.5z"/>
	<path fill="#FFFFFF" stroke="#000000" d="M158.8,271.6c17.2,7.1,34.1,14.1,51.5,21.4c-12.9,39.7-26,79.7-39.4,120.7
		c-9.5-3.6-18.9-6.7-27.7-10.8c-1.6-0.8-2.4-6.2-1.5-8.8c1.8-4.9,1.1-8.7-0.8-13.5c-4.2-10.7-7.1-21.9-10.5-32.9
		c-0.6-2-1.2-4.2-2.5-5.8c-2.7-3.4-2-6.7-0.3-9.9c9.8-19.5,19.8-38.9,29.7-58.3C157.8,272.7,158.5,272,158.8,271.6z"/>
	<path fill="#FFFFFF" stroke="#000000" d="M211.6,293.4c14.7,3.8,28.8,7.4,42.7,11c-6.2,41.4-12.4,82.9-18.8,125.2
		c-21-3.4-42.1-8.2-63.2-15.7C185.4,373.6,198.5,333.6,211.6,293.4z"/>
	<path fill="#FFFFFF" stroke="#000000" d="M303.2,379.4c0,0,0.2-0.2,0.2-0.2c-5.1,4.4-10.6,8.4-15.1,13.4c-1.7,1.9-1.3,6-1.6,9.1
		c-0.8,9.1-1.5,18.2-2.3,27.3c-0.7,7.6-0.8,7.7-8.4,6.7c-12.6-1.8-25.2-3.5-39.1-5.4c6.3-42.2,12.6-83.9,18.9-125.9
		c11.1,1.6,20.9,3,30.6,4.5c1.1,0.2,2.3,0.4,3.4,0.5c6.7,0.3,6.9,0.5,6.7,7.1c-0.2,7.4-0.2,7.4,7.1,8.9c0.5,0.1,0.9,0.2,1.8,0.4
		c1.3,6.3,2.5,12.7,4,19.9c6.6-2.2,13.6-3,20,2.9c-3.1,3.6-6.5,7.6-10,11.5c-4.6,5.1-9.3,10-13.8,15.1
		C304.5,376.4,303.9,378,303.2,379.4z"/>
	<path fill="#FFFFFF" stroke="#000000" d="M130.7,237.2c-3,3.2-3.5,5.8,1.5,7.6c2.3,0.8,4.4,2.2,6.8,3.4c-0.3,2.6-0.6,5.6-1,9.5
		c-4-2.5-7.7-4.8-11.4-7.1c-19.7-12.2-37.3-27.1-54.1-42.9c-1.1-1-0.8-3.5-1.5-6.4c0.4,0.3-0.2-0.2-0.8-0.7
		c-6.4-4.1-6.5-4.1-0.8-9.7c22.4-22,44.9-44,67.3-66c1.2-1.1,2.4-2.2,4.8-4.3c1.2,3.5,1.9,6.2,3,8.7c3.3,7.2,2.6,13.2-4.2,18.3
		c-2.3,1.7-3.4,5.1-4.6,7.9c-0.4,0.8,0.3,2.5,1.1,3.3c5.6,5.4,5.7,5.3,0.3,11.4c-0.4,0.5-0.8,1-1.2,1.6c-0.2,0.3-0.2,0.6-0.4,1.2
		c1,0.9,2.1,1.8,3.5,2.9c-0.6,2.6-0.3,5.4-4.4,6.2c-3,0.7-3.3,6.3-2.9,10.6c0.5,5.2-0.2,10.6-1.1,15.8c-0.8,4.4-2.5,8.7-3.4,11.8
		c1.2,6.4,2.2,11.8,3.3,17.1C130.6,237.4,130.7,237.2,130.7,237.2z"/>
	<path fill="#FFFFFF" stroke="#000000" d="M386,199.8c-1.9-1.9-3.2-3.4-4.7-4.7c-2-1.8-4.1-3.6-6.3-5.2c-1.5-1.2-3.2-2.1-4.7-3.2
		c-0.5,1.5-1,3-1.7,5c-7.8,0-16,0.2-24.3-0.1c-3.5-0.1-7-0.8-10.3-1.9c-1.8-0.6-3.1-2.5-5.6-4.7c3.5-0.5,5.6-0.8,8.1-1.1
		c-0.9-5.3-5.2-4.7-8.4-5.5c-2.2-12.3,2.1-28,12.3-27.5c-0.5,1.1-1,2.1-1.5,3c-4.6,7.8-1.7,15.2,1,22.7c0.5,1.4,0.4,3.1,0.6,5.8
		c1.9-0.8,5.4-1.5,5.6-2.5c0.3-2.7-1-5.5-1.6-8.3c-0.6,0-1.1,0.1-1.7,0.1c0.8-1.3,1.6-2.7,2.4-4c-4.3-6.4-2.1-13.6,4.9-16.6
		c0.7-0.3,1.7-0.4,2.3-0.2c2.3,0.9,6,9.8,5.7,12.5c-0.2,1.5,0.3,3,0.5,4.6c1.3-0.4,2.6-0.8,3.9-1.1c1.3-0.2,2.7-0.2,4.2-0.3
		c3.1-14.6,9.6-4.5,15.2-1.2c-3,4.8,3.5,4.2,4.9,7c0.9-0.6,1.7-1.2,2.6-1.7c1.6-0.9,3.1-1.9,4.7-2.8c0.3,0.4,0.6,0.8,0.9,1.2
		c-0.7,1-1.7,2-1.9,3.1c-0.2,1,0.7,2.1,1,3.2c2.9-3.4,6.3,2,9.5-0.5c0.4-0.3,3.1,1.1,3.2,1.9c0.8,4.5,2.6,2.5,5,0.5
		c1.1,1.1,2.2,2.3,3.4,3.6c-1.6,1.4-2.7,2.4-4.6,4.1c2.5,0.8,4.2,1.4,4.9,1.6c-0.8,2.7-2.2,5.6-2,8.3c0.1,1.1,3.4,2.3,5.5,3
		c3.3,1.2,6.8,2,10.2,3c0.8,0.2,1.8,0.7,2.3,0.4c4.3-2.3,5.2,0.3,5.4,4.3c5.2,0,10.1,0,15.4,0c-1.1,3.2-4.4,5.9-1,9.2
		c0.1,0.1-0.3,1-0.6,1.3c-3.7,3-2,6.3-0.8,10.5c-1.9-0.8-4.3-1.2-5.6-2.6c-3.4-3.5-7.5-5.7-11.9-7.1c-1.7-0.6-3.9,0.2-5.9,0.3
		c0.3,1.7,0.8,3.3,1,5c0.2,1.3,0,2.7,0,4.1c-0.4,0.4-0.9,0.7-1.3,1.1c5,2.5,10.2,4.8,15.1,7.5c2.4,1.3,5,3,6.4,5.2
		c2.5,4,4.3,8.4,6.4,12.7c-0.4,0.4-0.8,0.7-1.3,1.1c-3.4-1-6.8-2-10.3-3c-3.4-1-6.8-1.8-10.6-2c3.4,9,14.3,8.1,19.9,15.5
		c-6.9,1-12.6,1.4-18.5-1.8c-2.7-1.5-6.4-1.2-9.6-1.9c-2-0.4-4.5-0.3-3.7-3.8c0.1-0.7-1.7-1.9-2.8-2.7c-2.7-1.9-5.5-3.6-8.2-5.4
		c-1.1-0.7-2.5-2.2-3.3-1.9c-4.4,1.6-9.2,3-12.9,5.9c-2.6,2-4.5,2.5-6.3,0.6c-1.2-1.3-1.4-3.9-1.2-5.9c0.2-1.6,1.5-3.1,2.7-3.6
		c4.3-1.6,8.8-2.9,13-4.7c2.8-1.2,3-3.5,0.6-5.4c-3-2.3-2.2-4.4-0.4-7.2c5.6-9.1,3.5-16.1-5.9-22C392,202.3,389.4,198.8,386,199.8z"
		/>
	<path fill="#FFFFFF" stroke="#000000" d="M505.5,367.7c-5.6,0.9-10,1.5-14.4,2.2c-0.6-2.7-1.2-5.7-1.9-8.7c-0.6,0-1.2,0.1-1.7,0.1
		c-0.7,1.3-1.4,2.6-1.6,3c-3-3.3-6-6.5-8.9-9.8c-1.8-2-2.1-3.7-1.1-6.9c0.8-2.5,2.4-4.7,2.7-6c6.6-0.8,12.7-1.5,18.7-2.2
		c2.7-11,0.7-15.2-8.7-18.4c-0.8-4.3-1.3-8.8-2.5-13.2c-0.4-1.7-2-3.8-3.5-4.2c-3.1-1-3.9-2.9-3.4-5.6c0.8-4.9-0.7-6.8-4.7-5
		c-2.7-4.1-5-7.7-7.4-11.4c0.3-0.3,0.7-0.6,1-0.9c5.1,4.6,10.1,9.3,15.4,13.7c5.1,4.2,10.5,8,15.7,11.9c0.2,7.9,1.3,9.1,8.9,11.1
		c2.2,0.6,4,2.3,6,3.5c0.9,0.5,1.9,1.4,2.8,1.3c5.6-0.5,11.2-1.2,17.2-1.8c-2.3,4-4.1,7.7-6.4,11.2c-2.5,3.8-3.1,7.6-2.3,12.5
		c7.4-5,6.7-15.3,14.9-18.9c1,1.5,1.8,2.8,2.8,4.3c1.7-1.1,3-2.5,4.6-3c5-1.4,5.8,3,7.5,6c1.2,2.1,2.5,4.1,3.7,6.1
		c0.5-0.1,1-0.2,1.5-0.4c-1.1,3-2.2,6-3.4,9c-0.3-0.5-0.5-1-0.8-1.6c-2.5,0.2-5.3-0.2-7.4,0.8c-11.4,5.4-22.5,11.2-33.8,16.8
		c-5,2.4-7.1,0.8-6.9-4.7c0.1-1.1-0.7-2.5-1.4-3.4c-0.3-0.4-2.3-0.2-2.5,0.2c-0.7,1.3-1.5,3-1.3,4.4
		C503.7,362.8,504.9,365.8,505.5,367.7z"/>
	<path fill="#FFFFFF" stroke="#000000" d="M496.7,429.6c-0.9-5.2-0.2-8.2,5.3-7.3c0.8,0.1,2.3-0.2,2.6-0.8c3.4-6.3,7.7-3.5,11.4-1.4
		c2-1.2,3.6-2.1,6.4-3.9c-0.7,3.6-1.1,5.4-1.5,7.6c4.2,2.8,8.7,5.6,12.7,8.9c0.8,0.7,0.2,4.4-0.9,5.7c-3.3,3.6-6.9,6.9-10.8,9.9
		c-5.8,4.4-10.6,3.1-13.8-3.5c-0.9-1.9-2.1-3.9-2.5-5.9C504.6,433.7,502.6,429.8,496.7,429.6z"/>
	<path fill="#FFFFFF" stroke="#000000" d="M541.7,438.4c-2.2,0.4-4.4,0.7-6.7,1.1c0.5-6.2,0.6-5.4,6.1-5.9
		c5.3-0.5,10.4-2.7,15.6-4.2c1.4-0.4,2.9-0.7,4.3-1c0.2,0.4,0.5,0.8,0.7,1.2c-1.2,1.5-2.2,3.1-3.6,4.4c-4.9,4.4-10.1,8.5-14.7,13.1
		c-1.8,1.8-2.7,4.7-3.8,7.2c-1.1,2.5-1.4,5.5-2.9,7.7c-0.8,1.2-3.8,2-5.1,1.4c-1.4-0.7-3.2-3.6-2.8-4.7c2.2-5.6,2.8-12.5,10.8-14
		c1.4-0.3,2.3-3.3,3.4-5.1C542.6,439.1,542.2,438.8,541.7,438.4z"/>
	<path fill="#FFFFFF" stroke="#000000" d="M349.6,272.6c0-6.2-3.2-6.8-7.1-5c0.8-3.8,1.8-7.5,2.3-11.2c0.5-3.9,0.6-8,1.5-12.1
		c1.7,3.2,4.4,3.4,7,4.6c4.8,2.2,10.6,4.2,13,10.4c0.7,1.8,4.3,2.5,6.7,3.7c-1,4.5-3.8,3.5-6.6,1.8c-1.4-0.8-2.5-2.2-3.8-3.2
		c-2.3-1.6-3.8-1.7-5.2,1.5c-1.5,3.4-4.2,6.4-6.4,9.5C350.5,272.6,350,272.6,349.6,272.6z"/>
	<path fill="#FFFFFF" stroke="#000000" d="M56.8,334.5c13.3,11.7,13.9,27.5,16.5,42.7c-4-2.7-9.2-4.6-7-10.8
		c0.2-0.6-0.3-1.6-0.8-2.2c-6.4-8.1-7.7-17.9-9-27.7C56.4,335.9,56.7,335.3,56.8,334.5z"/>
	<path fill="#FFFFFF" stroke="#000000" d="M309.4,169.3c-0.8-7.3-2.5-14.4,1.2-21.1c0.5-1,2.9-1.7,4.1-1.5c2.8,0.6,5.5,1.9,8.8,3.1
		c-1.7,3.4-2.8,9-5.2,9.6C312.6,160.9,312.4,165.9,309.4,169.3z"/>
	<path fill="#FFFFFF" stroke="#000000" d="M294.1,195.1c2.3,3.3,4.6,6.1,6.3,9.2c0.6,1,0.1,3.2-0.7,4.2c-0.5,0.6-2.7,0.4-3.8-0.2
		c-2.9-1.4-5.6-3.2-8-4.6C289.9,200.9,291.8,198.3,294.1,195.1z"/>
	<path fill="#FFFFFF" stroke="#000000" d="M558.9,410.8c1.1,2.4,2.2,4.7,3.5,7.5c1.2-0.2,2.7-0.4,5.4-0.8c-0.9,2.7-1.7,4.9-2,5.9
		c-3.8,0-6.3,0-9.3,0c0.3-3.7,0.7-7.9,1.1-12.2C558,411.1,558.5,410.9,558.9,410.8z"/>
	<path fill="#FFFFFF" stroke="#000000" d="M362.6,157.8c-1.9-2.4-3.8-4.7-5.6-7c8.1-2.3,11.2-1.1,13.9,5.1
		C368,156.6,365,157.3,362.6,157.8z"/>
	<path fill="#FFFFFF" stroke="#000000" d="M547.9,422.5c-0.7,1.8-1.4,3.6-2.2,5.8c-4.5-2.1-10.3,1.1-14.2-3.2
		C537,424.2,542.3,423.4,547.9,422.5z"/>
	<path fill="#FFFFFF" stroke="#000000" d="M529.5,427.3c5,1,10.1,2.1,15.1,3.1c-5.5,1.4-10.7,0.8-15.4-2.8
		C529.2,427.7,529.5,427.3,529.5,427.3z"/>
	<path fill="#FFFFFF" stroke="#000000" d="M276.2,198.7c-4.3,5.3-9.5,2.9-16.1-7.4c-3.8,1.2-7.9,1.7-11.4,3.6
		c-5.7,3.1-10.7-0.3-15.9-0.8c-0.6-0.1-1.6-2.5-1.5-3.7c0.2-3.4,0-6.5-3.8-7.6c-4.2-1.2-6-3.7-5.3-8.6c4.1,1.5,8,2.1,11.8,5.4
		c2.8,2.4,8.2,1.7,13.2,2.5c3.4-9.5,7-19.3,10.5-29.2c0.4,0,0.7,0,1.1,0c0,4.4,0,8.7,0,13.4c4-0.4,5.7-1.5,5.7-5.3
		c-0.1-4.2,0.9-8.3,1.4-12.5c0.7-0.2,1.4-0.3,2.1-0.5c1.1,2.4,3.1,4.8,3.2,7.3c0.2,6.5-0.8,13.1-0.5,19.6c0.1,2.6,1.7,5.3,3.3,7.5
		c2.1,2.9,4.8,5.4,7.6,8.5C278,192.2,271.1,191.4,276.2,198.7z"/>
	<path fill="#FFFFFF" stroke="#000000" d="M244,140.6c-0.2,2.6-0.3,4.7-0.4,6.8c1.6,0,3.1,0,6.1,0c0.3,1.5,0.8,3.9,1.3,6.7
		c0.9,0.1,2.5,0.3,4.6,0.6c-3.1,8.8-6.2,17.4-9.3,26c-6.7-1.3-13-2.3-18.7-7.9c4,1.4,7,2.7,10,3.5c1.3,0.4,2.9-0.1,4.3-0.2
		c-0.4-1.5-0.3-3.8-1.2-4.4c-2.7-1.8-5.8-3-8.8-4.3c-3.6-1.6-8.6-1.5-9.6-7.4c4-0.4,7.5-0.8,12-1.2c-4.3-3-7.4-5.2-10.5-7.4
		C229.1,143.4,235.5,139.9,244,140.6z"/>
	<path fill="#FFFFFF" stroke="#000000" d="M243.6,135.9c-3,0.7-5.4,1.3-7.8,1.7c-7.4,1.3-14,3.8-18.5,10.3c-0.6,0.9-2.9,0.6-4.4,0.7
		c-1.8,0.1-3.6,0-5,0c-0.8-4.4-1.5-8.4-2.5-13.4c4.4-6.3,15.2-8.8,16.1-19.8c4.6,1.4,9.4,1.2,11.2,6.7c0.4,1.2,1.9,2.7,3.2,3
		C241.8,126.4,241.7,131.4,243.6,135.9z"/>
	<path fill="#FFFFFF" stroke="#000000" d="M272,144.9c1.7,0.7,4.1,1,5,2.3c0.7,1-0.5,3.3-0.8,5c-0.5,0-1,0.1-1.5,0.1
		c-1.2-2.1-2.4-4.2-3.6-6.3C271.3,145.8,271.7,145.4,272,144.9z"/>
	<path fill="#FFFFFF" stroke="#000000" d="M335.4,109.9c-1.6-2.3-2.9-4-4.2-5.8c0.3-0.3,0.6-0.6,0.9-0.9c0.8,0.3,1.7,0.6,2.6,0.8
		c1.3,0.4,3.3,1.3,3.8,0.8c0.9-0.9,1.3-2.8,1.1-4c-0.2-1.2-1.5-2.3-2.5-3.1c-1.1-0.9-2.4-1.5-3.6-2.3c1.4-1.6,2.6-3.7,4.4-4.8
		c1.5-1,3.7-0.9,6.9-1.6c-3.8-5.3-7-9.8-9.6-13.3c5.1-3.2,9.8-5.8,14-9c0.7-0.6-0.2-3.4-0.5-6.4c-5,4.3-8.3,8.4-14.7,7.2
		c-7-1.3-5.3-8.6-9.4-11.6c3.4-2.6,6.8-5.1,11-8.3c0.4,0.1,2.3,0.5,4.3,1c0.7-6.9,4.6-9.6,11-11.9c4.1-1.4,8-2.5,12-2.1
		c2.9,0.3,5.6,2,8.4,3.1c-1.2,2.7-2.4,5.4-3.8,8.1c-0.5,1.1-1.4,2-2.7,3.7c2.2,0.1,3.5,0.2,5,0.3c-1.8,7.3-3.5,14.6-5.3,21.9
		c0.5,0.1,0.9,0.3,1.4,0.4c-3.2,2.3-6.5,4.5-9.6,7c-2.6,2.1-1.8,6.1,1.5,7.7c3.5,1.7,4,6.6,0.5,8.6c-2.6,1.5-3.1,3-3.1,5.8
		c0,1.9-1.9,3.8-3.3,6.3c0.8,0.6,2,2.1,3.6,2.7c2.6,1,4,2.7,2.1,4.7c-1.6,1.8-3.7,5.8-7.1,2.2c-2.5-2.7-4.4-1.1-6.5,0.3
		c-5.7,3.6-10.9,1.3-17.6-1.1C330,113.7,332.6,111.9,335.4,109.9z"/>
	<path fill="#FFFFFF" stroke="#000000" d="M315.9,81.7c-0.6-1.3-1.3-3-1.8-4.2c0.8-2.4,1.5-4.5,2.2-6.6c0,0-0.1-0.1-0.1-0.1
		c1.1-3.3,2.2-6.5,3.4-10.1c5.3,8.2,10.3,16.1,15.5,24.2c-2.2,2.7-4.8,6.3-7.8,9.5c-1.8,2-4.3,3.9-6.6,0.6c-1.7-2.4-5.4-4.9-0.9-8.3
		c0.9-0.7,0.9-2.5,1.4-3.8C319.6,82.5,318.1,82.2,315.9,81.7z"/>
	<path fill="#FFFFFF" stroke="#000000" d="M569.1,369.4c0.6-2.4,0.8-3.7,1.3-5c0.4-1.1,1-2.1,2-4.1c1.2,2.5,1.8,3.8,2.4,5.1
		c5.2-0.1,9.9-0.2,13-5.4c1.6-2.6,3.8-1.2,5,0.9c0.5,0.9,0.5,2.3,0.6,3.4c0.2,4,1.8,4.9,5.3,2.3c0.7,3.1,1.3,6,1.9,8.9
		c0.5-0.1,1-0.1,1.5-0.2c0.5-2.3,1-4.6,1.5-6.9c0.4,0,0.8,0,1.2,0c0.6,2.2,1.2,4.5,2,7.1c1.1-0.9,1.9-1.6,3.8-3.1
		c0.4,4.4,0.8,8.1,1.1,11.7c-0.9,0.5-1.9,1-2.8,1.4c-0.5-1.4-1.1-2.7-1.7-4.4c-1.5,1.3-2.5,2.2-3.7,3.2c-1.2-2.7-2.3-5.3-3.6-8.2
		c-6.5,3.4-1.3,12.3-8.1,16.3c1.3-4.9,1.3-4.9-4.5-8.1c-8.4,4.5-16,8.6-24.3,13.1c-0.3-1.8-0.7-2.8-0.5-3.6c1.1-3.2,1-5.9,0.3-9.5
		c-1.7-8.6-1.8-17.6-1.6-26.5c0.3-9.5,0.8-9.5,3.4-12.5C568.6,352.6,562.3,361.4,569.1,369.4z"/>
	<path fill="#FFFFFF" stroke="#000000" d="M252.4,125.6c3.5-0.7,6.7-1.3,10.8-2.1c-2.9-2.6-5.1-4.5-6.5-5.8
		c-3.4-0.2-6.2-0.4-10.1-0.6c4.4-4.6,7.7-8,11.8-12.3c3.1,6.3,5.7,11.2,7.7,16.3c0.6,1.5-0.5,3.9-1.5,5.5
		C262.7,129.6,255.4,129.1,252.4,125.6z"/>
	<path fill="#FFFFFF" stroke="#000000" d="M266.1,125.1c1.4-1.2,3.3-2.2,4-3.8c1.1-2.5,1.3-5.3,1.8-7.9c0.3-1.6,0.6-3.3,1.9-4.7
		c0,2.5-0.2,5.1,0,7.6c0.3,3.6,1.6,5.6,5.2,2.3c3.1,3.5-0.2,5.7-1.6,7.9c-3.4,5.3-6.9-2-10.5,0.1
		C266.7,126.1,266.4,125.6,266.1,125.1z"/>
	<path fill="#FFFFFF" stroke="#000000" d="M319.5,118.4c3.1-1.5,4.6,1.1,5.2,3.9c1.3,6.9,9.5,10.7,15.5,7.3c2.6-1.5,5.8-2.6,8.8-2.8
		c2-0.1,5.3,1.1,5.9,2.6c1,2.3,0.9,5.7-0.1,8.1c-0.5,1.1-4.2,0.7-6.4,1.1c-4.2,0.7-8.4,2-12.5,1.9c-4.5-0.1-9.2-0.8-13.3-2.5
		c-1.7-0.7-2.5-4.7-2.9-7.3C319.2,127,319.5,123.1,319.5,118.4z"/>
	<path fill="#FFFFFF" stroke="#000000" d="M309.8,111.2c2.4,1.4,4.9,2.6,7,4.3c0.4,0.4-0.7,2.6-1.4,5.1c-2.8-3.2-4.8-5.4-6.7-7.7
		C309,112.4,309.4,111.8,309.8,111.2z"/>
	<path fill="#FFFFFF" stroke="#000000" d="M283.5,157.5c2.8,0.7,4.6,1.1,6.4,1.6c0.3-2.5,0.6-5,0.9-7.5c-0.5-0.1-1-0.2-1.5-0.3
		c0.9-1.3,1.9-2.5,2.8-3.8c3.1,0.7,6.1,1.3,9.5,2c-0.7,1.2-0.9,2.2-1.5,2.8c-3.1,3.2-3.9,5.7,0.6,8.7c3.4,2.2,1.7,9.8-2.3,11.7
		c-1.9,0.9-3.7,1.7-5.3,2.5c-3-4.5-6.2-9-9.2-13.8C283.4,160.2,283.7,158.5,283.5,157.5z"/>
	<path fill="#FFFFFF" stroke="#000000" d="M260.2,94c-2.1,2.9-4.2,5.7-6.6,9.1c-4.7-7.4-7.1,0.4-11,0.5c-1.2-1.3-2.6-2.9-4.4-5
		C245.6,96.6,251.2,89,260.2,94z"/>
	<path fill="#FFFFFF" stroke="#000000" d="M301.7,132.3c-2.4,0-4.1,0-6.6,0c0.7-2.3,1.3-4.2,1.9-6.5c-2-0.2-4.2-0.4-6.7-0.7
		c0.9-2.1,1.7-4,1.9-4.6c2.4-1.5,3.7-2.5,5.2-3.3c1.1-0.6,2.5-1.5,3.5-1.3c1,0.3,2.5,1.9,2.4,2.8
		C303.1,123.1,302.3,127.5,301.7,132.3z"/>
	<path fill="#FFFFFF" stroke="#000000" d="M292.6,81c6.4,2.8,9.8,9.5,9.3,18c-3.2-2.8-6.3-5.6-9.5-8.4
		C296.9,88.5,293.1,84.6,292.6,81z"/>
	<path fill="#FFFFFF" stroke="#000000" d="M47.7,301.3c1.3-6.2,2.6-12.4,4.3-19.9c2.3,2.9,3.5,4.5,4.4,5.6c-2.7,5-5.3,9.6-7.8,14.3
		C48.2,301.3,48,301.3,47.7,301.3z"/>
	<path fill="#FFFFFF" stroke="#000000" d="M535.9,390.1c-6.8,5-12.2,2.7-17.5,0C523.8,390.1,529.2,390.1,535.9,390.1z"/>
	<path fill="#FFFFFF" stroke="#000000" d="M380.9,215.5c2.2-2.9,3.8-5,5.5-7.1c1.3,2.2,3.5,4.3,3.7,6.6c0.1,1.4-2.7,3.4-4.6,4.3
		C384.9,219.6,383,217.3,380.9,215.5z"/>
	<path fill="#FFFFFF" stroke="#000000" d="M366.9,276c-0.9,1.4-1.6,3.1-2.8,4.2c-1.1,1-2.7,1.5-4.2,2c-0.2,0.1-1.4-1.4-1.2-1.7
		c0.9-1.5,1.8-3,3.1-4.1c1.1-0.8,2.7-0.9,4.1-1.4C366.2,275.4,366.5,275.7,366.9,276z"/>
	<path fill="#FFFFFF" stroke="#000000" d="M312,129.5c0.8,2.7,1.7,5.4,2.5,8.1c-0.5,0.4-0.9,0.9-1.4,1.3c-1.7-1.5-4.1-2.7-5-4.5
		c-0.5-1.2,1.2-3.4,1.9-5.2C310.7,129.3,311.3,129.4,312,129.5z"/>
	<path fill="#FFFFFF" stroke="#000000" d="M313.3,99.3c-4.9-0.7-5.2-1.3-4.4-8.2C310.2,93.6,311.5,96,313.3,99.3z"/>
	<path fill="#FFFFFF" stroke="#000000" d="M276.7,93.7c-1.8,1.2-3.5,2.4-5.9,4c-0.5-3-0.8-4.4-1.1-6.4c2.4,0.2,4.4,0.4,6.4,0.6
		C276.2,92.6,276.5,93.1,276.7,93.7z"/>
	<path fill="#FFFFFF" stroke="#000000" d="M378.6,279.2c5.4,1.7,4,4.4,2.4,7.1c-0.5,0.1-1.1,0.1-1.6,0.2
		C379.1,284.1,378.9,281.7,378.6,279.2z"/>
</g>
</svg>
